<?xml version="1.0" encoding="utf-8"?>
<!-- Generator: Adobe Illustrator 19.0.0, SVG Export Plug-In . SVG Version: 6.00 Build 0)  -->
<svg version="1.1" id="layer" xmlns="http://www.w3.org/2000/svg" xmlns:xlink="http://www.w3.org/1999/xlink" x="0px" y="0px"
	 viewBox="-153 -46 652 652" style="enable-background:new -153 -46 652 652;" xml:space="preserve">
<style type="text/css">
	.st0{fill:#061922;}
	.st1{fill:#FFFFFF;}
</style>
<rect x="-131.6" y="207" class="st0" width="600" height="135.2"/>
<path class="st1" d="M-20.3,235.9H-21v-0.7h0.7V235.9z M-21,230h-0.7v-0.3h0.7V230z M-22.3,242.5v0.7h-0.3L-22.3,242.5L-22.3,242.5z
	 M-24.3,246.1h-0.7v-0.3L-24.3,246.1L-24.3,246.1z M-25.3,252.3h-0.7v-0.7h0.7V252.3z M-25.3,261.2h-1.3v-0.3l0.3-0.3h1
	C-25.3,260.5-25.3,261.2-25.3,261.2z M-26.2,266.1l-0.3,0.3v0.3h-0.7v-0.3h-0.3v0.3h-0.7v-1h0.3v-0.7h0.3v-0.3c0.3,0,1,0,0.7-0.3
	h0.3C-26.6,264.8-26.6,265.4-26.2,266.1L-26.2,266.1L-26.2,266.1z M-26.6,274.3L-26.6,274.3l0.3,0.3v0.3l-0.3,0.3v0.3h-1v-0.3h-0.3
	v-0.3l0.3-0.3h1V274.3z M-26.9,278.2h-0.3v0.3h-0.3v-0.3h-0.3v-0.7h0.3v-0.7h0.3v0.3h0.3V278.2z M-28.2,225.1v-1h0.7v1H-28.2z
	 M-27.6,227c0.7,0,0.3-0.7,1-0.3v0.7l-0.3,0.3v0.3h-1L-27.6,227L-27.6,227L-27.6,227z M-26.6,259.5c0.7,0.3,0-0.7,0.7-0.3v0.3h0.3
	v0.3h-0.3l0,0h-0.7V259.5z M-28.9,266.7h-0.7v-0.7h0.7V266.7z M-28.9,277.2h-1v-0.7h1V277.2z M-28.2,289.4v1h-1.3v-1H-28.2z
	 M-28.9,282.5l0.3-0.3h0.7v0.3h0.3v0.3h-0.3v0.3h-0.3v1h-0.7V282.5z M-29.5,294L-29.5,294L-29.5,294l0.3,0.7h-0.3v0.3h-1v-0.3h-0.3
	l-0.3-0.7h-0.3v0.7h-0.3v-0.3h-0.3v-1c0.7,0.3,0-0.3,0.7-0.3v0.3h0.7V293h0.3v0.7h0.3L-29.5,294L-29.5,294z M-30.5,297.6v-0.7h0.3
	L-30.5,297.6L-30.5,297.6z M-30.2,301.2c0.7,0.3,0-0.7,0.7-0.3v0.3h0.3v0.3h-0.3v0.7h0.7v1.3h-0.7v0.7h0.3v0.3h-0.3v0.3h-0.3v-0.3
	h-0.3c0-0.3,0.3-1-0.3-0.7h-0.3v-0.7h0.3v-0.3h-0.3v-0.3h0.3v-0.7h0.3V301.2z M-30.2,299.5c0.7,0.3,0-0.7,0.7-0.3v1h-0.7V299.5z
	 M-31.2,307.4h-1.3v-0.7h0.7v-0.7l0,0h0.3h0.3L-31.2,307.4z M-32.2,309h-0.7v-1h0.7V309z M-33.1,305.4L-33.1,305.4l-0.3-0.7h-0.3
	v0.3h-0.3v0.7h-0.3c0-0.3,0-0.7-0.3-0.3h-0.3v0.7h-0.7v-3.3h1l0.3,0.3h0.3v0.3h0.3v0.3h0.7v0.3h0v0.3h0.3v1h0.7v0.7h-0.7
	C-32.8,305.8-32.5,305.1-33.1,305.4 M-35.8,299.5h0.7v0.7h-0.7V299.5z M-35.1,281.2L-35.1,281.2L-35.1,281.2l-0.3-0.7
	c0.7,0.3,0-0.3,0.7-0.3l0.3,0.3h0.3v0.7H-35.1z M-35.8,279.2L-35.8,279.2L-35.8,279.2l-0.3,0.3h-0.3v-1h0.3v-0.7h-0.3v-0.3l0,0v-0.3
	l0.3-0.3h0.7v0.3h0.3v0.3h0.3v1l-0.3,0.3L-35.8,279.2L-35.8,279.2z M-34.4,299.5L-34.4,299.5l0.3,1h-0.3V299.5z M-34.4,269.7h0.7
	v0.7h-0.7V269.7z M-33.1,255.9L-33.1,255.9l0.3-0.7l0.3-0.3h0.7v1h-0.3v1h-0.7v-0.3h-0.3V255.9z M-32.8,251v-0.7h0.7v0.7H-32.8z
	 M-31.5,290.3v0.7h-0.7v-0.7H-31.5z M-30.8,290.3c0.7,0.3,0-0.7,0.7-0.3v1h0.3v0.7h-0.7v-0.3h-0.3V290.3z M-30.2,234.9L-30.2,234.9
	L-30.2,234.9L-30.2,234.9L-30.2,234.9z M-28.9,299.5h0.7v0.7h-0.7V299.5z M-36.4,286.4L-36.4,286.4l-0.3,0.3h-0.3v-1h0.3
	L-36.4,286.4L-36.4,286.4L-36.4,286.4z M-28.9,224.1L-28.9,224.1L-28.9,224.1v0.3v1h0.3l0.7,0.3h0.3v0.7h-1c0,0.3,0,0.7,0,1h-0.7v2
	h0.3v0.3v0.3h0.3l0,0l0.3-0.3l0,0.3l-0.3,0.3v0.3h0.3c0.3,0.3,0.3,1,0,1.6h-0.3v0.3h-1l-0.3,0.7h-1.3v0.7h0.3v1.3h-0.3v0.7h1v0.7h-1
	v0.7h0.3v1h-0.3v0.3h0.3v0.7h-0.7v1h0.3v-0.3h0.7v1h-0.3v0.3l-0.7,0.3c0,0.7,0,1.3,0,2h-0.7v0.7h-0.7v0.7h0.3c1,0,0.3,1,0.3,1.3h0.3
	v-0.3h0.3v-1.3h1c0,0.7,0,1.3,0,1.6h-0.3v0.3c0,0.3-0.7,0-0.7,0.3v0.7h0.3v0.3h0.3v0.3h0.3c0,0.3,0,1,0,1.6h-0.7v0.3
	c-0.3,0.3-1,0-1.6,0v-0.7h-0.3v0.3h-0.7v1.6h0.7v0.3h0.3v0.3h0.3v0.7h-0.3v0.3h-0.3v0.3h0.3v0.3h0.3v1.3h-0.3l-0.3-1h-0.3v0.7h0.3
	v0.7h-1v0.7h0.3v0.3h-0.7v0.3l-0.3,0.3v0.3h0.3v0.7h-0.3v0.3h0.3v0.3h0.3l0.3,0.3h0.3v0.7h-1v0.7h-0.7v1.3c0.3,0,0.7,0,1,0v1h-0.3
	v0.7h-1.3v2.3h0.7v-1.6h0.7c0,0.7,0,1.3,0,1.6h-0.3v0.3h-0.7v0.3h0.7v0.7h-1v2.3h-0.7v2.6h-0.7v2h0.7v-0.3h0.3v-0.7h-0.3l0,0h0.7
	V272h0.3v-0.3h0.7v1.3h-0.3v2.3h-0.3v0.3h-0.7l0,0h-0.3v0.3h-0.3l0,0l-0.3,0.3v0.7h0.3l0.3,0.3l-0.3,0.3v0.3h0.3l0.3,0.3h0.3v0.3
	h-0.3v0.3h-0.3v0.3h0.3v0.3h-0.3v0.7h0.7v0.7h-0.7v0.7h0.3v0.3h0.3v-0.3h0.3l0.7,0.3h-0.3v0.7l-1.3,0.3v0.3h0.7v0.7h-0.7v0.7h0.7
	v-0.7h0.3v0.3c0.7,0,0.3,1,0.3,1.3h0.3v0.3h-0.3v0.3l-0.3,0.3c-0.7,0-0.3-0.7-0.3-1h-0.7v-0.3h-0.3v0.7h-0.7v0h-0.3v0.7h0.3v0.3
	h-0.3v0.3h0.3v0.7h0.3v1h0.7V288h-0.3v-0.7h0.3c0.3,0,0.3,0,0.3,0.3h0.3v0.3h0.3v1h-0.3v0.3h-0.3v0.3l-0.3,0.3v0.3
	c-0.3,0.3-1.3,0-1.6,0.3l0,0h-0.3v0.3h0.3v0.7h-0.3v0.3h0.3l0.3,0.3h1v-0.7h0.3l0.7,0.3h0.3v0.3h-1v2.6h-0.7v-0.3h-0.3v-0.3h-0.7
	v0.3l-0.3,0.3v0.3h1v1.3h0.3v-0.3h0.7v0.7h-0.3v0.3h-0.3l-0.3-0.3h-0.3v0.7h-0.7v1.3h0.7c0,0.7,0,1.3,0,1.6h-0.3v0.7h0.3l0.3,0.3
	h0.3v0.7h-0.3v1h0.7v1h-0.7v0.7h0.3c1,0,0.3,1,0.7,1.6h0c1-0.3,0.3,0.7,0.3,1h0.3v0.3h0.3v0.3h0.3v0.3h0.3v0.3h0.3v0.3h0.3v0.3h2
	v0.7h1.6v-0.3h0.3l0,0l0.3-0.3V309l0.3-0.3v-0.3h-0.3c-0.3-1.3-0.3-2.6,0-3.6h0.3v0.7l0.3-0.3v-0.7h0.3c0.7-0.3,0.3,0.3,0.7,0.7h1
	v0.3h0.3v0.3h0.3v0.7h0.7v-1.6h-0.3v-0.3h-0.3v-1h0.3v-0.3h-1.3v-0.3h-0.3v-0.3h0.3v-0.3h-0.3v-0.3h0.3v-0.3h0.7v0.7h-0.3v0.7h0.7
	v-0.3h0.3v-0.3h0.3v-1.6h-0.3v-0.3h-0.3v-0.3h0v-0.3h-0.3v-0.3h-2.3v-0.7h0.3v-0.3h-0.3v-0.7h-0.7v-0.7h0.7v-0.3l0.3-0.3v-0.7h1.3
	v1.3h1.3v-0.7h-0.7v-1.3h-0.7v-2h-1v-0.3h-0.3V292h1v0.3h0.3v-1.6h0.3v-0.3h0.3v-0.7h-0.3v-0.3h1v-0.7h-0.7v-0.3h-0.3V288l0.3-0.3
	v-3.9h0.3l0.3,0.3h-0.3v-0.3h0.3v-0.3h-0.3v-0.3h-0.3l-0.3-0.3h0.3v-0.7h-0.7v-0.7h-0.3c-0.7,0.3-0.3-0.3-0.3-0.7h-0.7v-1.3h1v-0.3
	h0.3v0.7h0.3v-0.3l0.3-0.3v-0.7h0.7v-1h-0.3v-1h0.7c0-0.7,0-1.3,0-1.6h0.7v-0.7h-0.3v-0.3h-0.3c0-1,0-2.3,0-3.3h-0.3l0,0h-0.3v0.7
	h-0.3V271h-0.3v-1h0.3v-0.3h-0.3v-0.3h0.7c0-0.3,0-0.7,0-1h0.3c1,0,0.3,1,0.7,1.6h0.7v-1.3h0.7v-4.3h-0.7v-0.7h0.3v-0.3l0.3-0.3
	c0-0.7,0-1.3,0-2h0.7v-1.6H-24v-0.7h0.7v-0.3l0.3-0.3v-0.7h-0.3v-0.3h-0.3v-0.3H-24v-0.3h-0.3c-0.3-0.7,0-1.3,0-1.6h-0.3v-0.7h0.3
	v-0.7h-0.3v-0.3h0.3v-0.3h0.7v1H-24v0.3h0.7v-0.3l0.3-0.3v-0.3h0.3v0.3h0.7v-1h-0.7c0-0.7,0-1.3,0-1.6h0.3v-0.3h-0.3v-0.3h-1.6
	c0-0.7,0-1.3,0-1.6h0.7V248h1v-0.7h0.7v-0.7h0.3l0,0l0.3-0.3v-1.3h0.3v-0.3h0.3v-1H-21v-0.7h-0.3v0.3h-0.3c0,0.7,0,1.3,0,2H-22v0.3
	h-0.3v-0.3H-23v-1h0.7v-0.7h0.3v-1h0.7v-0.3h0.3l0.3,0.3h0.3v-1h0.3v-1h-0.3v0.7h-1.3v-0.7h0.7v-0.7h0.3v-1h0.3v-1.3h-1.3v-0.3H-22
	v-0.7h1v0.3h0.3v-0.3h0.3v-0.3l0.3-0.3v-0.3h0.3v-0.7h0.3v-0.3h0.3v-0.3h-0.3c0-1,0-2.3,0-3.3h-0.3L-20,231h-0.3v-0.3h0.3v-0.3h0.3
	c0-0.7,0-1.3,0-1.6h0.3V228h-0.3v-0.3h-0.7v-1h0.3v-1h-0.3v-0.3h0.3v-0.3h0.7l-0.3-0.7h-1l-0.3-1h-0.3h-1.3v-0.3l-0.7-0.7l-0.7,0.3
	l-0.7-0.3h-1l-0.3,0.7l-1.3-0.3h-1.3v0.7h-0.7L-28.9,224.1z"/>
<polygon class="st1" points="-29.9,230.6 -29.5,230.6 -29.5,230.3 -29.5,230.3 -30.2,230.3 -30.2,230.3 -30.5,230.6 -30.5,231 
	-29.9,231 "/>
<path class="st1" d="M361.5,294.3L361.5,294.3l-0.3,0.3h-0.7v0.3h-0.3v-0.7l0.3-0.3L361.5,294.3L361.5,294.3z M361.2,297.9h0.7v0.7
	h-0.7V297.9z M359.9,292L359.9,292l-0.3-0.7h0.3V292z M351.7,302.8h-0.3v0.3h-0.7v-0.7c0.7,0,0-0.7,0.7-0.3l0.3,0.3h0.3v0.3H351.7z
	 M351,305.1l-0.3,0.3v0.3h-0.3l-0.3-0.3h-0.3v-0.3c1,0.3,0-0.7,1-0.3L351,305.1z M350,303.8L350,303.8L350,303.8L350,303.8h-0.7
	v-0.3c0.7,0.3,0-0.7,0.7-0.3l0.3,0.3h0.3v0.3H350z M347.4,294h-0.7v0.3l-0.3,0.3v0.3h-0.7v-0.3h0.3v-0.3h0.3v-0.7h1L347.4,294z
	 M346.4,306.4h-1.6v-1.3h0.7v-0.3h0.3v-1h0.3l0.3,0.3h0.3L346.4,306.4z M344.1,295.3h-0.3v0.3h-0.3v-0.3h-0.3v-0.7h1L344.1,295.3z
	 M338.2,309h-0.7v-0.7h0.7V309z M337.2,297.2L337.2,297.2l-0.3,0.3h-0.3v-0.7L337.2,297.2L337.2,297.2z M328,308.4h-2.3v-0.7h0.7
	v-0.7h-0.3v-0.3h1v0.3h-0.3v1h0.3v0.3h0.3l0,0H328L328,308.4z M324.4,305.8h-0.3v0.3l-0.3,0.3v0.3h-0.3v-0.7h0.3v-0.7h-1.3l-0.3-0.3
	h-0.3v-0.3c0.7,0.3,0-0.7,0.7-0.3v0.3h0.7v0.3h1.3L324.4,305.8L324.4,305.8z M318.5,264.8l-0.3,0.3v0.3h-1.3v1.3h-1v-0.3h-0.3v-0.7
	h-0.3v0.3h-0.7v-1.3c0.7,0,1.3,0,1.6-0.3v-0.3l0.3-0.3h1v0.3h0.3v0.7h0.3v-0.3L318.5,264.8L318.5,264.8z M313.9,253.9L313.9,253.9
	l0.3-0.7h0.7v0.7H313.9z M314.3,267.4l-0.3,0.3v0.3h-1v-1.3l0.3-0.3h0.7v0.3h0.3V267.4z M317.5,281.2h-0.7v1h-0.3v-0.3h-0.3v-0.7
	C317.2,281.8,316.6,280.5,317.5,281.2L317.5,281.2z M310.7,266.7L310.7,266.7l-0.3,0.3H310l-0.3-0.3l-0.3,0.3v0.3H309l-0.3-0.3h-0.3
	v-0.3l0.3-0.3v-0.3c0.3,0,1.3,0.3,1-0.3h0.7v1H310.7z M307.1,265.1h-0.7v-0.3h0.7V265.1z M307.1,267.7L307.1,267.7l-0.3-0.7h0.3
	V267.7z M306.4,267.4h-0.7v-0.3L306.4,267.4L306.4,267.4z M305.1,267.4h-0.3v0.3l-0.3,0.3v0.3h-1l-0.3-0.3l-0.3,0.3v0.3h-0.7
	l-0.3-0.7h-0.3v-0.7h-0.3v-0.3l0.3-0.3h0.7v1.3h0.7l0.3-0.3l0.7-0.3v-0.3h0.3v-0.3h0.3l0.3,0.3h0.3L305.1,267.4L305.1,267.4z
	 M322.5,278.5c0.7,0,0-0.7,0.7-0.3v1.6h-0.7V278.5z M323.1,273.9c0.7,0.3,0-0.7,0.7-0.3v0.7h0.3v0.3h-1V273.9z M323.1,268.7
	L323.1,268.7l0.3,0.3h0.3v0.7h-0.7L323.1,268.7L323.1,268.7z M324.1,276.6h-0.7v-0.7h0.3L324.1,276.6L324.1,276.6L324.1,276.6z
	 M324.1,265.1h0.7v0.7l-0.3,0.3l0,0h-0.3L324.1,265.1L324.1,265.1z M325.4,233.6v-1h0.7v0.3h0.7v0.3h-0.3v0.3H325.4z M325.7,234.6
	h-0.7v-0.3L325.7,234.6L325.7,234.6z M331.7,227h0.7v0.3H332l0,0h-0.3L331.7,227L331.7,227z M332.3,234.3h0.3v-0.7h0.7v-0.3l0.3-0.3
	l0,0h0.3v-0.3c0.7,0.3,0.3-0.3,1-0.3v0.7l-0.3,0.3l0,0h-0.3v0.3h-0.7v0.7h0.3v0.3h-0.3v-0.3h-1v0.7h-0.3V234.3z M330,261.8h0.3v0.7
	H330V261.8z M331.7,261.2L331.7,261.2L331.7,261.2L331.7,261.2L331.7,261.2z M332.3,261.2L332.3,261.2l0.3,0.3L332.3,261.2
	L332.3,261.2z M333,250.7L333,250.7l0.3-0.7h2.3v0.7c-0.3,0-1,0-1.3,0.3v0.3h0.3v0.7h-0.3v0.3H334l-0.7-0.3H333v0.3h-0.3v-1.6H333z
	 M339.5,258.5c0.7,0.3,0-0.7,0.7-0.3v0.3h0.3v0.3h-0.3v0.3h-0.7V258.5z M347.4,253.9c0.7,0.3,0-0.3,0.7-0.3v1h-0.7V253.9z
	 M333.6,294.9L333.6,294.9l0.3,0.7h-0.3V294.9z M365.4,293h-0.7v-0.7h-0.3v0.3h-0.7v-0.3h-0.7v1.3h-0.7v-1.3h-0.7v0.7h-0.3v-0.3
	h-0.3v-0.3l0.3-0.3v-0.7h0.3V290h0.3c0.7-0.3,0.3,0.7,0.7,0.7h0.7v-2h-0.7V288h-0.3v0.3h-0.7V288h-0.3v-0.3h0.7v-0.3l0.3-0.3v-0.3
	h-2v0.7h-1.3v-0.3h-0.3v0.3h-0.3v0.7h0.3l0.7,0.3h0.3v0.3h0.7v-0.3h0.3v-1h0.3c1-0.3,0.3,0.7,0.3,1h1v0.3h0.3v0.3l-0.3,0.3v0.3h-0.3
	v-0.3h-1.3v0.7h-1.3v0.7h-0.7v-0.3l0,0l0,0h-1.3v-0.7h0.3V289h-0.7c0,0.3,0,0.7,0,1h-0.3v-0.3h-0.3c-0.3-0.3,0-0.7,0-1h-0.7
	c0,0.3,0,0.7,0,1h-0.3v-0.3h-0.7V289h-0.3v0.3h-0.3v0.7h-0.7v-0.3H353v2.3c-0.7,0-0.3-1-0.3-1.6h-0.3V290H352v0.3h-0.3v0.7h0.3
	l0.3,0.3h-0.7v0.3l-0.3,0.3v-0.7H351V291h-0.3c0,0.3,0,0.7,0,1h-0.3c-0.7,0-0.3-0.7-0.3-1h-0.3v0.3c-0.7,0.3-1.6,0-2.3,0V291h-0.3
	v0.3h-0.3v0.7h-0.3l-0.3-0.3h-2v0.3l-0.3,0.3V292h-0.3v0.3l-0.3,0.3v0.3h0.3v0.7h-0.7v0.7h-1.6V294h-0.3v-0.3h-0.3v0.3h-0.3v0.3h0.3
	v0.7h2.3v0.7c-0.7,0.3-1.3,0-2,0v0.3c-0.3,0.3-1.3,0-1.6,0.3v0.3h-0.7c0-0.3,0-0.7,0-1h0.3l0.7,0.3h0.7v-1.6h-0.7v0.7h-1.3v0.7h0.3
	v0.7h-1.3v0.3h-1v0.3h-0.3l-0.3-0.3H334v-0.3c0.3-0.3,1.3,0,1.6-0.3v-0.7h0.3v-0.7h0.3l0.3,0.3h1v-0.3h-0.3v-0.3l0.3-0.3v-0.7h-0.3
	V293h-1.6v0.7h-3v0.7H332v0.7h0.3v0.7H331v-0.3h-0.3v0.3H330v0.3h-0.7v0.3h-0.7v-1h-0.3v-0.3h-1v0.3h-0.7v-0.7h2.6v-0.3h0.7v-0.7
	h-1.3v0.7h-1.3v-0.7h-1v-0.3h-0.3V293h-1v0.7h-0.7c-0.7,0-0.3-1-0.3-1.3h-0.7v-1h-0.7l0.3-0.7h0.7v-3h-0.3c0-0.3,0-1,0-1.6h0.3v-0.7
	h0.3v-0.3h-0.3v-0.3h-0.3v-1h-0.3v-1h0.3v0.7h0.3v0.7h0.3v-0.3h0.3v-1.6h-0.3l-0.3-0.3h-0.3v-0.3l0.7-0.3c0-1.3,0-3,0-4.3h0.7v-2.6
	h0.3V273h0.3v-0.3h-0.7v0.7h-0.3v0.3h-0.3v-1h0.3v-0.3l0.7-0.3v-1.3h0.3v-3h0.3v-0.3h-0.7v-0.7h0.3v-0.3h0.7v-0.3h0.3l0,0l0.3-0.3
	l0.3,0.3l0,0h0.3l0,0c0-0.3,0.7,0,1-0.3v-0.7H328v-0.3h-0.3v-0.3c0.3-0.3,1,0,1.6,0v-0.3h0.3v-0.3c0.3-0.3,1.3,0,2,0v-0.7h-0.3v-0.7
	h1v0.3h0.3v-0.3l0.3-0.3v-1h0.7v-0.7h-0.3v-0.3h0.3l0.7,0.3h1v0.3h0.3v0.3h0.3v0.3h0.3v0.3h-0.3v0.3h0.3v0.3h0.3v-0.3l0.3-0.3v-1
	h-0.7v-1h0.3l0.3,0.3h0.7c0-0.3,0-0.7,0-1h2.3v0.3l-0.3,0.3l0,0l-0.3,0.3v0.3h0.3l0.3,0.3h0.3v0.3h0.3v-0.3h0.3v-0.3l0.3-0.3v-0.3
	l0.3-0.3v-0.3h0.3v-1h-0.3v-0.3h-0.3l-0.3-0.3h1v-0.7h-0.3v-0.7h1v0.7h1v-0.7h-0.3v-0.7h0.3v-0.3h-0.3l-0.3-0.3h-1v-1.3h0.3
	c0.7-0.3,0.3,0.3,0.3,0.7h0.3v-0.3h0.3l0.3,0.3h0.7v-0.7h0.3v-0.3h0.3v0.7h0.3v-0.7h0.3V251h0.3c0,0.7,0,1.3,0,2h0.3v1h-0.3v0.3
	h-0.3v0.3l-0.3,0.3v0.3h-0.3l0,0c-0.3,0.3-1,0-1.3,0v1h0.3v0.3h0.3v-0.3h0.7v0.7h-0.7v0.7h1.3v-0.7h0.3l0,0l0.3-0.3v-0.3
	c0.3-0.3,0.7,0,1,0c0-0.3,0-0.7,0-1h0.3v-0.3h0.3v-1.3h0.7v-1.3h-0.7v-1h-0.7v-0.7h1.3v-1.3h-0.7v0.7h-0.7v-1.6h-0.3V248h0.7
	l-0.3-0.7h-0.3l0,0l-0.3,0.3v1h0.3v0.3h0.3c0.3,0.7,0.3,1.6,0,2.6h-0.3c-0.7,0.3-0.3-0.3-0.3-0.7h-0.3c0-0.7,0-1.3,0-2h-0.3
	l-0.3-0.3h-0.3v-0.3h-0.3V248h-0.3v-0.3h-1.3c0,0.7,0,1.3,0,2h-1.6V249h0.3v-0.3h-0.3V248h-0.3v-0.3h-0.3l-0.3-0.7h0.3v0.3h-0.3v1
	h0.3v0.7h-0.3v0.3l-0.3,0.3v0.3h-0.7v0.7h-1v-1h-0.3v0.3h-0.7v-0.3h-0.3v0.3h-1.3v-0.3h0.3v-0.3l0.3-0.3v-0.3h0.3v-0.3l0.3-0.3v0.3
	h0.7v-1h-1.3v0.3h-1.3v-0.3h-0.7v0.7h-0.3v0.3l-0.3,0.3v0.3h-0.7v-0.7h-0.7v0.3l-0.3,0.3l-0.3-0.7h-0.3V248h-0.3v0.3h-0.7v-0.7h-0.3
	v-0.3H330V247h-0.3l-0.3-0.3H329v-1.3h0.3v-0.3H329v-0.7h0.3v-0.3l0.3-0.3v0.3h1.3v-0.7h-0.3v-0.3h0.3v0.3h-0.7v-1.3h2.3v-0.3h0.3
	v-0.3h0.7v-0.3h-0.3v-0.3H333c-0.7,0-0.3-0.7-0.3-0.7h-0.3l-0.3-0.3h-0.3c0-0.3,0-1,0-1.3h0.3v-0.3h0.3l0.3,0.3l0,0v0.3h0.7v-1H333
	c0-0.7,0-1.3,0-2h0.3l0,0h0.3v-0.7h0.3v-0.3l0.3-0.3v-0.7h0.3l0.7,0.3h0.3v-0.3h0.3v-1.6h-0.3c-0.7,0-0.3-1-0.3-1.3H334v-1h-0.7
	v-0.7H333l-0.3-0.3c0.3-0.3,1,0,1.3-0.3v-1.3h-0.3l-0.3-0.3H333v-0.3h-0.3v-0.3h-0.3V226h-0.7v-0.3h0.3v-0.7h-3.3v-0.7h0.7v-0.3h0.3
	v-0.3l0.3-0.3l0,0h0.3v-0.7H330v-0.3h-0.3l-0.3-0.7H329v-0.3h-0.3v0.7h-0.3v0.3H328l-0.3-0.3h0v1.3h-0.7v1.3h-0.7v1h0.3v1h-1v0.7h1
	v0.7h-1v0.3h0.3v0.3h0.7l0,0h0.3c0,0.3,0,1,0,1.6h-0.3v0.7h-0.3l0,0l-0.3,0.3V231h-0.3v-1h0.7v-0.7h-0.3l0,0h-0.3v0.7h-1v3.3h-0.3
	v0.3h-0.3v0.3l-0.3,0.3v0.3h-0.3v0.3h-0.7v0.7h0.3c0.7,0,0.3,0.7,0.3,1h0.3v0.3h0.3c0.3,0.3,0,0.7,0.3,1h0.7v-1.6h-0.7v-1.6h1.3v0.7
	h0.7c0,0.3,0,0.7,0,1h-0.3v0.3l-0.3,0.3v2.6h-0.7v-0.7h-0.7v0.7h-0.7v0.7h-0.7v0.7h-0.3v-0.3h-0.7v0.7h-0.7v0.7h1.3v1.6h-0.3
	c-0.7,0-0.3-0.7-0.3-0.7h-0.7v0.7h-0.3l-0.3,3.3h-1.3v0.7h0.3l0.3,0.3h0.3v0.3h0.3v0.3h0.3v0.3h0.3v0.3h-0.7v0.7h0.7v0.7h-0.7v0.3
	c-0.3,0.3-1,0-1.3,0v-0.3h1v-0.7h-0.3V249h-1l0,0l-1.3,0.7v0.3h0.3v1h-0.7v1h0.3l0.3,0.3l-0.3,0.3v0.3h-0.3v-0.3h-1v0.3h-0.3v0.7
	h-0.3v-0.3h-0.3v-0.7h-2.3v0.7h-2v0.7h-0.7v0.7h0.3c0.7-0.3,0.3,0.3,0.3,0.7h0.3v0.3h-0.3v0.3l-0.3,0.3v0.3h-1v0.7h-0.7v-0.7h-0.7
	v0.3l-0.3,0.3v-0.3H308v-0.3h0.7v-0.3l0.3-0.3v-0.3h-0.3v-0.3h-0.3v0.3c-0.3,0.3-1,0-1.6,0v-1h-0.3v0.3h-0.3v0.7h-0.7v0.7h-0.3v-0.3
	h-0.3v0.3l-0.3,0.3v-0.7h-0.3v-0.3h-0.3v0.3c-0.7,0.3-1.6,0-2.3,0v-0.3h-0.3v0.7h-0.7v0.3l-0.3,0.3v0.3h0.3v0.7h0.3l0.3,0.3h0.3
	l0.3,0.3c0,0.3-1,0-1.3,0.3v0.3h0.3v0.3h-0.3v3.6h-0.7v0.7h0.3v0.3h0.3v0.7h0.3c0.7-0.3,0.3,0.3,0.3,0.7h0.3v0.3h-0.3v1.6h0.3v0.3
	h0.3v0.3l-0.3,0.3v1.3h2v-0.3l0.3-0.3v0.7h0.3l0.3,0.3h0.3l0.3,0.3l-0.7,0.3v0.3h-0.3v0.3h1.3v-1h0.3V270h0.3v-1h1.3v-0.7h0.3
	c0.7-0.3,0.3,0.7,0.3,0.7h1v0.7h0.7V269h0.3v-0.3h0.3v-0.3h0.3v0.3h0.3v-0.3h0.7V268h0.3l0.3,0.3h0.3v0.3h-0.3v1h0.7V269h0.3
	c0.7-0.3,0.3,0.3,0.7,0.7h0.7v-0.3l0,0v0.3h0.3l0.3,0.3h-0.3v0.3h-0.7v0.3h0.3l0.3,0.3h0.3l0.3,0.3h1V271h0.3v-0.3h0.3v0.7h0.7v0.7
	h-0.7v-0.3h-0.3v0.7h-0.3v0.3h-0.3l-0.3-0.3h-0.3V272h-0.7v0.7h0.3v0.7h-0.3v0.3h0.3c0.3,0,0.7,0,0.7,0.3h0.3v0.3h-0.3v0.7h1.3v0.7
	h-1.6v-1.3h-0.7v0.3l-0.3,0.3v0.3h0.3c0,0.7,0.3,1.6,0,2.3h-0.3v0.3h1v0.7h-1v0.3l-0.3,0.3v0.3h1.3v0.3h0.3v1.3h-0.3
	c-0.7,0-0.3-0.3-0.3-0.7h-0.7v0.3h-0.3v0.3l-0.3,0.3v3.9h0.7c0,0.7,0,1.3,0,2h-0.7v0.7h1.3v-1.6h0.7v-0.7h-0.3v-0.7h0.3v-0.3h0.3
	l0.3,0.3h0.3v-0.3h0.3v0.7h0.3v0.3h0.3v-0.3h0.3v0.3h0.7c0,0.3,0,0.7,0,1h-1.6v0.7h1.3v0.7h-1.3v0.7h1.3v1.3h0.3l0.3,0.3h0.3v0.3
	l-0.3,0.3v0.3h-0.3v-0.7h-0.7v0.7h-0.7v-0.7h-0.3c-0.7,0-0.3-1-0.3-1.3h-1v0.3h-0.3v0.3h0.3v1h-0.3v0.7h0.3v0.3h0.3v-0.7h0.3V291
	h0.3l0.3,0.7h0.3v0.3c0.7,0,0,1,0.3,1.3h0.7v-0.7c0.3,0,1,0,1,0v1h-1.6v0.3l0,0v0.3h0.3c0.3,1,0.3,2,0,3c0.3,0,1,0,1,0v0.7h-0.7v0.7
	h-0.3v-0.3h-0.7v-1.3h-0.7v0.7h-0.7v1h0.3v0.3h0.3l0.3,0.3h0.3v0.3h0.3v0.3h0.3v0.3h0.3v1h0.3l0.3,0.3h0.7v-0.3h0.3v0.7h0.7v-0.3
	h0.3l0.3,0.3h0.7v2.3c-0.3,0-1,0-1,0v-0.3h-1v1.3h2.6v0.7h-1.6v0.3h0.3v0.3h0.7l0,0l0.3-0.3l0.3,0.3h1v0.7h-1v1h1.3v-0.7h1.3v1.3
	l0,0v0.3l0,0v0.3h0.7V309h0.3l0.3,0.7h0.3v0.3h1v-0.7h0.3V309h0.3v-0.7h0.3l0.3,0.3h0.3v0.7h0.7v-0.7H330v-0.7h1v-0.7c0.3,0,1,0,1,0
	v0.7h0.7v0.7h-1v0.3h0.3v0.3h0.7v-0.7h0.3c0.7-0.3,0.3,0.3,0.3,0.7h0.3v-0.7h0.3v-0.3h0.3c0.3,0.3,0,0.7,0,1h0.7v-2h-0.7v-0.7h2.3
	v0.7h-1v0.7h0.3v0.3h0.3v0.3h3.3v-0.3h0.3l0,0h0.7v-0.7h-0.3v-1h0.3v-0.3l0.3-0.3v0.3h0.7v-0.3l0.3-0.3v0.3h0.3v0.3h0.3l0.3,0.3h0.3
	v0.7h0.3v-0.7h0.3v-0.3h0.3v0.7h0.3v0.3h0.3v-1h2v0.7h0.3v0.3h0.3v-0.3h0.3v-0.7h-0.3v-0.3l0.3-0.3v-0.7h-0.7v-0.7h1.6v1.3h1v-0.3
	l0.3-0.3v-0.7h0.3v0.3h0.7v-0.7h0.7v-0.7h1.6v-0.3h0.3v-0.3l0.3-0.3v0.7h0.3v0.3h0.3v-1.6h-1.3v-1h0.7v-0.7h0.3
	c0.7-0.3,0.3,0.3,0.3,0.7h0.7v1.3h0.3v0.3h0.3v0.7h-0.7v1.6h0.7v-0.7h0.7v-0.3h0.3v-0.3h0.3v-0.3h-0.7v-2.3h0.3v-0.3l0.3-0.3l0,0
	h0.3v1h0.3v0.3h0.3v-1.3h0.3v-0.3l0.3-0.3v-0.3h0.3v-0.3h1.3v-0.3h-0.3v-0.7h0.3c0.7-0.3,0.3,0.3,0.3,0.7h0.3v0.7h0.7v-0.3l0.3-0.3
	v0.7h0.3v0.3h0.3v-2.3h1.3v-0.7h-3v-0.3h-0.3v0.3h-0.7v-0.7h1v-0.3l0.3-0.3v-0.7h1V294h1v0.3h0.3l0.3,0.3h0.3V294h-0.3v-0.7h1V293
	h-0.3L365.4,293z"/>
<polygon class="st1" points="326.7,266.4 327.1,266.4 327.1,266.1 327.1,266.1 326.7,266.1 "/>
<rect x="-32.2" y="240.5" class="st1" width="0.3" height="0.7"/>
<polygon class="st1" points="-32.5,246.1 -32.8,246.1 -32.8,246.7 -32.5,246.7 "/>
<polygon class="st1" points="-32.2,248.7 -31.5,248.7 -31.5,248.4 -31.2,248 -31.2,248 -31.5,248 -31.5,247.4 -32.8,247.7 
	-32.8,248 -32.5,248.4 "/>
<polygon class="st1" points="343.1,248 342.5,248 342.5,248.4 343.1,248.4 "/>
<path class="st1" d="M42.6,290.7h-0.3V290H43v0.7H42.6z M42.6,292H42v0.7h0.7v0.3l-0.3,0.3l0,0l0,0V293H41v-0.7h0.3V292H41v-0.3
	l0.3-0.3H43L42.6,292z M40.7,287.4h0.7v0.3h0.3v0.7h-1V287.4z M38.1,287.4h-0.7v-0.7h0.7V287.4z M37.1,288.4l-0.3,0.3v0.3h-1.6v-0.3
	h0.3v-0.3c0.3,0,1.3,0.3,1-0.3h0.7V288.4z M35.8,296.9h-0.7v-1h0.3v0.3h0.3C35.8,296.3,35.8,296.9,35.8,296.9z M35.8,301.8h-0.7v0.7
	h-0.7v0.7h-1v-0.3h-0.3v-0.7h0.3v-0.3h0.7v-1h-0.3v-0.3h0.3v-1h-0.3v-2l0.3-0.3h1v0.7h-0.7v2.3h0.7c0.3,0.3-0.3,1.3,0.3,1h0.3V301.8
	z M34.1,304.8h-0.7v-0.7h0.7V304.8z M33.1,300.8h-1.3v-0.7h0.7v-0.3h0.3v-0.7h0.7v1h-0.3V300.8z M31.5,289L31.5,289l-0.3-0.3h0.3
	V289z M33.5,293.6h0.3v0.3L33.5,293.6L33.5,293.6z M31.2,288h-0.7v-0.3c-0.3,0-0.7,0-1,0l-0.3-0.3h-0.3v-0.7h0.7v0.3h1.6v0.3h0.3
	v0.7H31.2z M31.2,299.9L31.2,299.9L31.2,299.9L31.2,299.9L31.2,299.9z M30.5,290h-0.7v-0.7h0.7V290z M30.5,303.8L30.5,303.8
	l-0.3-0.3h-0.3l-0.3-0.3h-0.3v-1h0.3l0.3,0.3h0.3L30.5,303.8z M27.9,288h-0.7v-1.3h0.7V288z M26.6,287.7L26.6,287.7l-0.3-0.3h-0.3
	v-0.7h0.7V287.7z M26.2,299.9L26.2,299.9l-0.3,0.3h-0.3v-0.7L26.2,299.9L26.2,299.9z M25.6,288.4h-0.7V288L25.6,288.4L25.6,288.4z
	 M24.9,286.7L24.9,286.7l0.3,1h-0.3V286.7z M22.3,297.9H22v0.3h-0.3v-1h0.7L22.3,297.9z M21,274.6l-0.7-0.3H20v0.3h-0.7v-2h0.3v-0.3
	l0.7-0.3v-0.3c0.7,0.3,0-0.3,0.7-0.3v0.3h0.3v1L21,273v0.3h0.3v0.3H22v0.7h-1V274.6z M19.7,269L19.7,269L19.7,269L19.7,269L19.7,269
	z M18,286.1h-0.7v0.3h-0.3v0.3h0.3v0.7h-1v1h0.3v0.3l-0.3,0.3l0,0h-0.7c0-0.3,0-1-0.3-1h-0.3v0.7l-0.3,0.3v0.3h-0.3l0,0l-0.3,0.3
	l0,0h-0.7v0.3h-0.7v-0.7h-0.3v-0.7l-0.3,0.3l0,0H9.8v-0.3H9.5V288H9.2v0.3H8.9v0.7H8.5v0.3l-0.3,0.3l0,0H7.5v0.3H7.2v0.3H6.9V290
	H6.2c0-0.3,0.3-1-0.3-0.7l-0.3,0.3l0,0H5.2v-0.3H4.9V289h0.3v-0.7H4.6V288H4.3v-0.3H3.9v-0.3l0.3-0.3v-0.3h0.3v-0.3h0.3v-0.7h0.7
	v-0.3l0.3-0.3v-0.3H4.6v-0.3H4.3v-0.3c0.3,0,1.3,0.3,1.3-0.3v-0.3h0.3l0,0h0.3v-1.6H5.6v0.3H5.2v-0.7l0.3-0.3v-0.3h0.3l-0.3-0.3H5.2
	v-0.7c1,0,2.3,0,3.3,0v-0.3l0.3-0.3v-0.3H8.5v-0.3h0.3v-0.7H7.5v-0.3H7.2v-0.3l0.3-0.3v-0.3h0.3v0.3h0.7v-0.3h0.3v-0.3H8.5v-0.3
	l0.3-0.3v-0.3h0.7v-4.9h0.7v0.3h0.7v0.7h-0.7v0.7h1.6v0.3h0.3v0.3h1v2.6h0.7v0.7h1.6v0.3h0.7v0.7l-0.3,0.3v0.3h-0.3
	c0-0.3,0.3-1-0.3-0.7h-0.3v0.3l-0.3,0.3l0.3,0.3h0.3v0.7h1.3v0.3h-0.3v0.7h0.7v0.3h0.3v0.3h-1v1h0.3v0.3h0.3v0.7h0.7v-0.7H18v1.6h-2
	v1.3h2v0.7h0.3v1H18z M11.2,298.5L11.2,298.5L11.2,298.5L11.2,298.5L11.2,298.5z M7.2,298.2L7.2,298.2L7.2,298.2L7.2,298.2
	L7.2,298.2z M4.9,298.2L4.9,298.2l-0.3,0.7H4.3v0.3H3.6v-1l0.3-0.3v-0.3l0.3-0.3h0.7V298.2z M3.3,286.4l-0.3-0.3H2.6v-0.3l0.3-0.3
	h1.3v0.7H3.9v0.3H3.3z M6.9,275.6L6.9,275.6l0.3,0.7H6.9V275.6z M7.5,274.9L7.5,274.9L7.5,274.9l0.3-0.3v-0.3l0.3-0.3l-0.3-0.3H7.5
	V273h0.7v2.3h-1L7.5,274.9z M6.9,259.5h1l0.3,0.3h0.3v0.3h0.3v1l-0.3,0.3v0.3H8.2v0.3H7.9v-1.6H7.2v-1H6.9z M15.1,261.8L15.1,261.8
	L15.1,261.8v0.3V261.8z M2,286.4H1.6v-0.3L2,286.4L2,286.4z M-1.6,301.2h-1v-0.7H-2L-1.6,301.2L-1.6,301.2L-1.6,301.2z M-1.3,302.8
	H-2v-0.7h0.7V302.8z M-2.6,303.5h-1v-0.7h1V303.5z M-3.9,285.8h-0.7v-0.7h0.7V285.8z M-3.9,286.7h-0.7v-0.3L-3.9,286.7L-3.9,286.7z
	 M-8.5,302.2h-0.7v-0.3h-0.3v0.7h-0.7v1l-0.3,0.3v0.3h-0.3v-3h0.7l0.3,0.3h0.3v-0.7h0.3c0,0.3-0.3,1,0.3,0.7h0.3
	C-8.5,301.5-8.5,302.2-8.5,302.2z M-8.5,294.9L-8.5,294.9l-0.3-1.3h0.3V294.9z M-5.3,287.4L-5.3,287.4l-0.3-0.7h0.3V287.4z
	 M1.3,274.3H1v0.3H0.7v-1.3h0.7C1.3,273.3,1.3,274.3,1.3,274.3z M47.9,291.3h-1.6v-1.6h-0.7v0.7h-0.3V290h-1l0,0H44v-0.3h-0.3v-0.3
	H44V289c0-0.3,0.7,0,0.7-0.3V288h0.3v0.3h0.3V288l0.3-0.3v0.3h1.3v-0.7h-0.7v-1.3h-2v0.3l-0.3,0.3v-0.7h-0.3v-0.3h-0.3v-0.3H43v-0.3
	h-0.7l-0.3-0.7h-0.3v0.3h-0.3v0.7h-0.7v0.7H41l0.3,0.3H41v0.3l-0.3,0.3v-0.3H40v0.3h0.3l0.3,0.3h-1v-2.3h-2v-0.3h-0.3v0.7h-0.3v0.3
	h-1.3v0.3l-0.3,0.3l0,0h-0.3v-0.3h-0.7v1h-0.3v-0.3h-0.3v0.3l-0.3,0.3v-0.7h-0.3v-0.3c-2,0-3.9,0-5.6,0v-0.7h-0.3v-0.3h-0.3v-0.3h-1
	v-0.7h-0.7v0.3h-0.3v0.3h-0.3v-0.3h-0.7v0.7h-0.3l-0.3-0.3h-0.7v-0.3h-0.3v-0.3H22v-0.3l0.3-0.3v-0.3h0.3l0.3,0.3h0.3v-2h0.3v-0.3
	l0.3-0.3v0.3h0.7v-1.3H23v-0.3h-0.3v-0.3h-0.3v-0.7H22v-0.7h0.3v-0.3h-0.7v-0.7h1l0,0l0.3-0.3v-0.3h0.3v-2.6h-0.7v-1H23v-0.7h-0.3
	V272H22v-0.7h0.3v-3H22V268h-0.3v-0.3h-0.3v-0.3H21v-0.7h-0.3v0.3h-0.3v0.7h-0.7v0.7h-0.3V268H19v-0.7h-0.3v-1h-0.3l-0.3-0.3h-0.3
	v-0.3h-0.3v-0.3h-0.3v-0.3h-0.7v-0.7h0.7v-1.3h0.3c0.7-0.3,0.3,0.3,0.3,0.7H18v0.7h0.3c0.3,0.3,0,1,0,1.3h0.3l0.3,0.3h0.3v-0.3h0.3
	v-0.3h-0.3v-0.3h-0.7v-0.7H19v-0.3h-0.3c0-0.7,0-1.3,0-2H19v-0.7h-0.3v-0.3h-0.3v-0.3H18v0.7h-0.3l0,0h-1v-0.7h-0.3c0-0.7,0-1.3,0-2
	h0.3l0.7,0.3h0.3v0.3h-0.3v0.7H18v-1.3h-0.3c-0.7,0-0.3-0.7-0.3-0.7h-1v-0.3h-0.3v-0.3h0.3v-0.3h-0.3v-0.7h0.3v-0.3h0.3v0.3h0.7
	v-1.3h-0.7v-0.7h-1.6v-1.6h-0.3l-0.3-0.3h-0.3v-0.3h-0.3V252h-0.3v0.3h-0.7V252h-0.3v-0.3h-1.6V251H9.2l-0.3,0.3v0.3L8.2,252v1h0.3
	l0.3,0.3h0.3v-0.3h0.3h0h0.7v-0.3h0.3v0.3h0.3v1.3h-0.7v0.3H9.8v0.3H9.5v0.3H9.2v0.3H8.9v0.7H8.2v0.3h0.3l0.3,0.3h0.3v0.3H8.9v0.3
	H8.5v0.3H7.9v-0.7H7.2v0.7H6.6v0.7h0.7v0.7h-1v0.7H5.6v1.6h0.3l0.3,0.3l-0.3,0.3v0.3H5.6l0,0l-0.3,0.3v0.3H4.6v0.7h0.3v0.7h0.3v0.3
	h0.3v0.7h-1v0.7h0.3v0.3l-0.3,0.3v0.3H4.3v0.3h0.3v1H4.3L3.9,268H3.6v-0.3H2.9v0.7H2.3v0.7h0.3c1-0.3,0.3,0.7,0.3,1h0.3v0.3H2.9
	l0.3,0.3H2.9v0.3H2.6v-0.3H2.3v0.3H2v0.7H1.6v-0.3H1v1.3H0.3v2.3H1v-0.3l0.3-0.3v0.3h0.3v0.3H1.3v0.7h0.3l0.3,0.3h0.3l0.3,0.3
	l-0.3,0.3v0.7H2v0.3H1.3c0,0.7,0,1.3,0,2H1v0.7h-1.3v0.3h-0.3v0.7h-0.7v-1.6h0.7v-0.7H0v-2.3h-0.7v1.3h-2v-0.3H-3v1.3h0.7v0.7H-3
	v0.7h-0.7v0.3h-0.3v0.3l-0.3,0.3v1.3h0.7v-0.3h0.3v0.3H-3c0.3,0.3,0.3,1.3,0,2h-2.3v0.3h-0.3v0.3h-0.3v0.3l-0.3,0.3l0,0h-0.3v1h-0.3
	l0.3,0.3h0.3v0.3h0.3c1-0.3,0.3,0.7,0.3,1h0.3v0.3l-0.3,0.3v0.3h0.3v0.3h0.3v0.3l-0.7,0.3l0,0h-0.3v0.3h-1v-1.3h-0.7v0.7h-0.3l0,0
	h-0.3v0.3h-0.7v1h0.3v0.7h-0.3v0.3h-0.7v0.7h0.3v0.3h-0.3v0.7h1v1.6h0.3v1h-0.3l0,0h-0.3v0.3l-0.3,0.3v0.3l-0.3,0.3v0.3h-0.3
	c0,0.7,0,1.3,0,1.6h-0.7v-0.3h-0.3v0.3h-0.3v0.7h-0.7v0.7h-0.7v1h1.3v1.3h-0.7v1.6h0.7v2.3h-0.7v0.7h1.3v-1.6h2c0,0.3,0,0.7,0,1
	h-0.3v0.7h-0.3v0.7h0.3l0.7,0.3h0.3v0.3h0.3v0.3h0.3v0.3h0.3v0.7h1v-0.3h0.3V310h1v0.3h0.3v0.3h0.3v0.7h0.7V310h-0.7v-0.7h-1.3v-0.7
	h0.3v-0.3h-0.3v-0.3h-0.3v-1h0.3v0.3h0.7v-0.3l0.3-0.3v-0.3h0.3v-0.3h0.7v2.3H-2v-0.3h0.3v0.7h0.3v-0.3h-0.3l-0.3-0.3h-0.3v-0.3H-3
	v-0.7h0.3v-0.3h0.3v-0.3c0.3-0.3,1.3,0,1.6-0.3v-0.7H0v-1h-0.7v-3H0v-1h0.7v-1H1v-0.7l0.3-0.3v-0.7H1l-0.3-0.3l0.3-0.3l0,0h0.3v-0.7
	H1v-0.3h0.3v-0.3l0.3-0.3v0.3H2v0.7H1.6v0.7H2v0.3l-0.3,0.3v1H2v0.3h0.3v1h0.3c0.7-0.3,0.3,0.3,0.3,0.7h0.7v-0.7h0.3v-0.3l0.3-0.3
	v-0.7h1v-0.3l0.3-0.3l0.3,0.3h0.3v0.3h0.3v-0.3c0.3-0.3,1,0,1.6,0v0.3h0.3c0.3,0.3,0,0.7,0,1h0.3v0.3h0.7v-0.3h0.3v0.3h1
	c0-0.7,0-1.3,0-1.6h0.3v0.3h0.3v0.7h1v0.7h0.7v-0.7h1.3v-0.7h-3v-0.7h0.3v-0.7h0.3v0.7h0.7c0-0.3,0-0.7,0-1h0.3v-0.3h0.3v0.3h0.7
	v-0.7h0.7v1.3h-0.3v0.7h0.3v0.3h2v0.7h0.7v-2.3h0.3v-0.3l0.3-0.3v0.3h1v0.7h1.3v0.7h0.3c0.7,0,0.3,0.3,0.3,0.7h0.3
	c0.7-0.3,0.3,0.7,0.3,0.7h1v0.3h1.3v0.7h-1.3v0.7h2v-0.7h1v1.6h0.3v0.3h0.3v0.3h0.3v0.3h0.3c0.7-0.3,0.3,0.3,0.3,0.7h0.3v0.3
	l-0.3,0.3v0.3h-0.3v0.3h0.3v0.3h0.3c0.3,0.7,0,1.3,0,1.6h0.7v-0.7h1c0.7,0,0.3,0.7,0.3,1h0.3l0,0c0.3-0.3,1-0.3,1.3,0v0.3h0.3
	l0.3,0.3h1v-0.3l0.3-0.3l0,0c0.3-0.3,1.3-0.3,1.6-0.3v-0.7h1v-0.7h-0.7v0.7c-0.7,0-1.3,0-2,0v-0.7h0.7v-0.3h0.3l0,0
	c0.3-0.3,1,0,1.6-0.3v-0.7h0.7v-0.7h-0.3v-0.3c0-0.3,1-0.3,1.3-0.3v-0.7H39v-2.6h-0.7v-1.3h-1.3v-0.7h0.3v-0.3h-0.3l-0.3-0.3h-0.7
	v-0.7h0.3v-0.7h0.3v0.3h1.3V294h0.3c0.7-0.3,0.3,0.3,0.7,0.7h1v-0.3h0.3V294c0.3-0.3,1.3-0.3,2,0v0.3h0.3V294l0.3-0.3v0.3h0.3v-0.3
	h0.3v-0.3H44v-0.7h0.3v-0.3h0.3v0.3h1.6v-0.3l0.3-0.3v-0.3c0.3-0.3,1.3,0,1.6-0.3v-2h-0.7L47.9,291.3z"/>
<path class="st1" d="M238.5,303.8L238.5,303.8L238.5,303.8L238.5,303.8l-0.7-0.3v-0.7l0,0h-0.3v-0.3h0.3v0.3l0,0l0,0l0,0h0.3v-0.3
	h0.7v1L238.5,303.8z M238.2,307.4L238.2,307.4l-0.3-0.3h-0.3v-0.3h0.7V307.4z M239.8,305.4L239.8,305.4l0.3,0.7h-0.3V305.4z
	 M236.5,306.4h-0.7v-0.3L236.5,306.4L236.5,306.4z M234.2,297.9L234.2,297.9l-0.3-0.7h-0.3v-0.7h0.7V297.9z M234.2,307.4h-0.3v-0.3
	h-0.3v-0.3h0.7V307.4z M233.2,295.9h-0.7v-1.6h0.7V295.9z M233.2,307.1L233.2,307.1l-0.3-0.3h-0.3v-0.7h0.3v0.3h0.3V307.1z
	 M230.6,285.1h0.7v0.3h-0.7V285.1z M229.6,301.8l-0.3,0.3v0.3H229v-1h0.7V301.8z M229,266.7L229,266.7L229,266.7l0.3-0.3v0.7
	L229,266.7L229,266.7z M229.6,277.9h1v0.7h-0.3v0.3H230v-0.3h-0.3C229.6,278.5,229.6,277.9,229.6,277.9z M229.6,270.7h0.7v0.3h-0.7
	V270.7z M228.3,263.8L228.3,263.8L228.3,263.8L228.3,263.8L228.3,263.8z M227.7,296.9H227v-1h0.3v0.3h0.3V296.9z M226.4,291.7h-0.7
	V291h0.7V291.7z M225.7,278.9H225c0-0.3,0.3-1.3-0.3-1h-0.3v-0.7c0.7,0.3,0-0.7,0.7-0.3v0.3h0.7V278.9z M224.4,260.2h0.7v0.3
	L224.4,260.2L224.4,260.2z M223.7,264.4L223.7,264.4l-0.3-0.3h0.3V264.4z M220.1,273.6h-0.3H220.1L220.1,273.6L220.1,273.6z
	 M220.1,274.9L220.1,274.9l-0.3-0.7h0.3V274.9z M219.1,274.9h-0.7v-0.3L219.1,274.9L219.1,274.9z M218.8,276.6L218.8,276.6l-0.3-0.3
	h-0.3v-0.3h0.7V276.6z M214.5,279.8h-0.7v-0.7h0.3L214.5,279.8L214.5,279.8L214.5,279.8z M211.6,273.3h-1.6V273h-0.3v-0.3h1V272
	h-0.3v-0.3h0.7v0.7h0.3v0.3h0.3V273.3z M211.6,281.8h-0.7v-0.7h0.7V281.8z M210.3,274.3l-0.3,0.3v0.3h-0.3v-0.3h-0.3v-0.3H210.3
	L210.3,274.3z M207.7,273.9H207v-0.7h0.7V273.9z M207,276.6h-0.7v-0.7h0.3L207,276.6v-0.3V276.6z M206.7,287.7H205v-0.7h0.3v-1h0.7
	v0.3h-0.3v0.7c0.3,0,0.7,0,1,0V287.7z M201.4,286.1l-0.3,0.3v0.3h-1v-0.3l0.3-0.3H201.4L201.4,286.1z M199.5,288h-0.7v-0.7h0.7V288z
	 M195.5,295.9L195.5,295.9L195.5,295.9l-0.7,0.3v-0.7c0.7,0.3,0-0.7,0.7-0.3V295.9z M194.5,285.8L194.5,285.8l-0.3-0.3h0.3V285.8z
	 M194.2,262.8L194.2,262.8l-0.3-0.3h-0.3v-0.3h-0.3v-0.3h-0.3v-0.7h0.7v0.3h0.3v0.3h0.3V262.8z M193.9,288h-0.7v-0.3L193.9,288
	L193.9,288z M192.9,291.3h-0.7V291L192.9,291.3L192.9,291.3z M192.9,294L192.9,294l-0.3-0.3h0.3V294z M191.9,287.4v-0.7h-0.3v-0.3
	h0.3v-1.3h0.7v2.3H191.9z M191.9,283.1L191.9,283.1l0.3,0.3h0.3v0.3h-0.7V283.1z M191.9,259.5L191.9,259.5l0.3,0.3h0.3v0.3h-0.3v0.3
	h-0.3V259.5z M190.9,286.1h-0.3v0.3h-0.3c0-0.3,0.3-1-0.7-0.7h-0.3v0.3H189v-0.3h-0.3v-1.6h0.7l0.3,0.3h0.3v0.3h0.3v0.3h0.3v0.3h0.3
	C190.9,285.4,190.9,286.1,190.9,286.1z M190.3,288.7h-0.7v-1h0.7V288.7z M189.3,287.7L189.3,287.7l-0.3,0.7l0,0l-0.3-0.3h-0.3v-1
	h0.7L189.3,287.7L189.3,287.7L189.3,287.7z M188.3,281.2v-0.7h0.3v-0.3h0.3v-2h0.3v0.3h0.3v0.7h0.3v1h-0.7v0.3l-0.3,0.3v0.3H188.3z
	 M187.3,276.6v-0.7H186v-0.7h1.3c0.3-0.7,0-1.3,0-1.6h-0.7V273h0.7v-0.7h0.7v0.3h-0.3v0.3h0.3v0.3h1v0.3l0,0v3h0.3v-0.7h0.7v0.3h0.3
	v0.7h-0.3v0.7h-1v0.3h-0.3l-0.3-0.3H188v-0.3h0.3v-0.7H187.3z M188,279.2h-0.3v0.3h-0.3v-0.3H186v-1.6c0.7,0.3,0.3-0.7,0.7-0.3v1.3
	h1.3V279.2z M187.3,256.6h0.3v0.3L187.3,256.6L187.3,256.6z M188,253.6h0.7v0.7h-0.3L188,253.6L188,253.6L188,253.6z M189.3,274.9
	L189.3,274.9L189.3,274.9L189.3,274.9L189.3,274.9z M189.6,263.8h0.3v0.3L189.6,263.8L189.6,263.8z M184.7,266.1H184v-1h0.3v-1h0.3
	V266.1z M184,277.9h-0.7v-1h0.7V277.9z M183.4,269L183.4,269l-0.3,0.3h-0.3v-1h0.3v-0.7h0.3V269z M182.7,283.1h-1v-0.7h0.3v-0.7
	c0.7,0.3,0-0.7,0.7-0.3C182.7,281.5,182.7,283.1,182.7,283.1z M181.7,278.9h0.7v0.7h-0.7V278.9z M181.1,269.4h-0.7v-0.7h0.3v0.3h0.3
	V269.4z M179.8,286.7l-0.7,0.3v0.3h-0.3v-0.3h-0.3v-0.3h-0.3v-0.7h0.7l0.3,0.3h0.3L179.8,286.7L179.8,286.7L179.8,286.7z
	 M178.5,288.7L178.5,288.7L178.5,288.7L178.5,288.7L178.5,288.7z M177.8,267.7l-0.3,0.3v0.3h-0.3v-0.7H177.8L177.8,267.7z
	 M177.1,290L177.1,290L177.1,290L177.1,290L177.1,290z M173.2,304.8L173.2,304.8l-0.3,0.3h-0.3l-0.7-0.3h-0.3v-0.3h-0.3v-1h0.3v0.3
	h0.3v-0.3c0.7,0.3,0-0.7,1-0.3v1.6H173.2z M171.2,277.6L171.2,277.6L171.2,277.6L171.2,277.6L171.2,277.6z M170.6,279.8h-0.7v-0.7
	h0.3L170.6,279.8L170.6,279.8L170.6,279.8z M169.9,286.7h-1v-0.3h-0.3v-1h0.7v1L169.9,286.7L169.9,286.7z M168,293.3L168,293.3
	l-0.3-0.7h0.3V293.3z M167.3,297.2H167v0.7h0.3v1H167v1h-0.3c0-0.3,0.3-1.3-0.3-1.3v0.7h-1v-0.3l0.3-0.3v0.3l0.7-0.3v-0.3h0.3v-1.6
	h0.3L167.3,297.2L167.3,297.2L167.3,297.2z M166.3,301.8l-0.7,0.3l0,0H165v0.3h-0.3v-0.3l0.3-0.3v-0.3l0.3-0.3L166.3,301.8
	L166.3,301.8z M165.7,304.8H165v-0.3L165.7,304.8L165.7,304.8z M239.1,304.5h0.7v-1h-0.3v-0.7h-0.3v-0.7h-0.3l-0.3-0.3h-0.3v-0.3
	h0.3v-0.3h-0.7v0.7h-1v-0.7h0.7v-0.3h-0.3v-0.3h-0.7v-0.3h-0.7c0-0.3,0-1,0-1.6h0.7v-0.7h-0.7v0.3h-0.3v-0.3h-0.3
	c-0.3-0.3,0-1.3-0.3-2h-1v-0.3h-0.3v-1h0.3v-0.3h0.7v-0.7h-0.3v-0.3h0.3v-1h-0.7V292h-0.3v-0.3l0.3-0.3v-0.7h-2v-0.3h-0.7V290h-0.3
	v-1h1.6v0.7h0.7V289h-0.3v-0.3h1V288h-0.3l-0.3-0.3h-0.3v-0.3h0.3v-0.7h-0.7v-2h-0.3v0.3h-0.7v-0.3h-0.3v-0.3h-0.3l-0.3-0.3h-0.3
	v-0.3c0.7-0.3,1.6,0,2.3,0v-0.7h-1.3v0.3h-0.3v-0.3h-0.3v-1h0.3v-0.7h-0.7v-0.3H230v-0.3c0.3-0.3,0.7,0,1,0v-0.7h-0.3v-0.7h0.3
	c0.3,0,0.3,0.3,0.3,0.3h0.3v0.3h-0.3v0.7h1.3v-3.3h-1.6v-0.3h-0.3v-0.3h0.3v-1h0.3v-2.3h0.7V273h0.7v-0.7h-0.7v-3h-0.3l-0.3-0.3
	h-0.3v-0.3h-0.7v0.7H230c-0.3-0.3,0-1,0-1.6h0.3v-0.7h0.3v-1H230v-0.7h0.3v-0.7h-1v-0.3h0.3v-0.3h0.3v-0.3h-0.3
	c-0.3,0-0.7-0.3-0.3-0.3H229v-0.3h-0.7v-0.3h-1v-0.7h0.3l0.7,0.3l0,0v-1h0.3v-1h-0.3v0.7c-0.7,0,0-1-0.3-1.3h-0.3c0,0.3,0,0.7,0,1
	h-0.3v0.3H227v0.3c-0.3,0.3-1,0.3-1.3,0v-0.3h0.3v-1.3h0.3v-0.3l0.7-0.3l0,0h0.3v-0.3h-1.6v1h-0.3v-0.3H225v0.3l-0.3,0.3l0,0
	l-0.3,0.3v-0.3h-0.3v0.7h-0.3v0.7h0.3v0.3l-0.3,0.3v0.7h0.3v0.3h-0.3v0.3l-0.3,0.3v-0.3h-0.7v-0.3c-0.3,0-0.7,0-1,0v-1h-0.3v0.3
	c-0.3,0.3-1,0-1.6,0v1.3h0.3v0.3h-0.3v0.3h-0.3v0.7h0.3v0.3l-1,0.3v0.7h-0.3l-0.3-0.3h-0.3v0.3h-0.3v0.7h-0.3v-0.3h-0.3v-0.7h-0.3v0
	c-0.3,0.3-1,0-1.3,0v1h-0.3v0.3l-0.3,0.3v0.7h-0.3l-0.3-0.3h-2v0.7h-0.7c0,0.7,0,1.3,0,1.6h-0.7v-0.7h-1v0.3l-0.3,0.3V270H209v0.7
	h-0.3v0.3h-0.3v-0.3h-0.7v0.7h-0.3v0.3H207v0.3l-0.7,0.3v0.3h0.3l0.3,0.3h0.3v0.3H207v0.3h-0.7v-0.3H206V273h-0.3v0.7h-0.3v0.3H205
	v1h-0.3v0.3h-0.3v-0.3h-1.6v0.3h-0.3v0.7h0.3v0.3h0.3l0.3,0.3h-0.3v0.3l-0.3,0.3v-0.3h-0.7v1h-0.7v-0.3h-1.6v0.7h0.3v0.3h0.3
	l0.3,0.3h-0.3v1.3h-1v-0.3h-0.3c-0.3,0-0.3,0-0.3-0.3h-0.3v-0.3h0.3l0,0h0.7v-0.7h-0.3v-0.7h-0.3v0.3c-0.3,0.3-1,0-1.6,0v-0.3h-0.3
	v0.3h-0.3v0.7l0,0v-0.3h-0.3v-0.3h-0.3v-0.3h-0.3v-0.3h0.3v-0.7h-0.3l-0.3-0.3h-0.3v-0.3h0.3v-0.7h0.3v-0.3h0.3v-0.7h-0.3v-0.7h0.3
	v-1.3h-0.3v-0.3h0.3V272h0.7v-0.3h-0.3l-0.3-0.3h-0.7v-0.7h0.3V268h-0.3v-0.7h-0.3v-0.3h0.3v-0.3h0.3c0.3,0.3,0,0.7,0,1h0.3v-0.3
	l0.3-0.3v-0.3h-0.3c-0.3-0.7,0-1.3,0-2h-0.3v0.3h-0.3v-1h0.3v-0.3h-0.3v-0.3h-0.3v-0.3h0.3v-1h-0.7v-1h-0.3v-1h-0.3v-0.3h-0.3v-0.7
	h-0.3v-0.3h-0.3v-0.3h-0.3v-0.7h0.3v0.3h0.3v0.3h0.3v-1h-0.3c-0.7,0.3-0.3-0.3-0.3-0.7h-0.7v-0.7h-0.3v0.3h-0.3v-0.3h-0.3
	c-0.3-0.3,0-1.3,0-1.6h-0.3v0.3h-0.3v1h-0.7v0.3l-0.7,0.3v0.3h-0.7v-0.3h0.3v-0.3l0.7-0.3v-0.3h0.3v-0.3l0.3-0.3v-0.3h-0.7v-0.7h1
	v-0.3h-1v-0.3h-0.3v-0.7h0.3V252h-0.3l-0.3-0.3h-0.3l-0.3-0.3c-0.7,0,0,0.7-0.7,0.3v0.3l-0.3,0.3v0.3H187v0.3l-0.3-1.3v1h-0.3v0.3
	H186v0.7h-0.3l0,0h-0.3v1H185v0.3h-0.3v0.3h0.3v0.7h-0.7v0.3H184v0.3h0.3v0.3H184l0,0l-0.7,1.3v2.3H183v0.3h-0.3v1.3h-0.3v0.7h-0.3
	v0.3h0.3v0.3h0.3l0.3,0.3h-0.3v0.3h-0.3v-0.3h-1v0.7h0.3v0.3l-0.3,0.3v0.7h0.3v0.3h-0.3v0h-0.7v0.3h0.3v0.7h-1v0.3v0.3
	c0,0.7,0,1.3,0,1.6c-0.3,0-0.7,0-1,0c0-0.3,0-0.7,0-1h0.3V268l0.3-0.3v-1.3h-0.3c-0.7,0-0.3-0.7-0.3-1h-0.3c0,0.3,0,0.7,0,1h-0.7v-1
	h0.3v-0.7h0.3v-0.7h-0.3v-0.3h0.7v-0.3l0.3-0.3v-0.3h-0.3v-0.3h-0.7v-0.3h0.3v-0.7h-0.3v-0.3h-0.3v-0.3h-0.3v-0.3h-0.3l-0.7-0.7
	v-0.3v-0.7h-0.7v-0.3h-0.3l-0.3-0.3h-2v0.3h-0.3v0.7h-0.3v0.3h-0.7v1h-0.3v0.3l-0.3,0.3v0.3h0.3v1h-0.3v0.3l-1.3,0.3v0.7h0.3v0.3
	h-0.3v0.7h0.3l0.3,0.3h0.3v0.3l-0.3,0.3v1h0.3v0.7h-0.7v0.3h-0.3v0.7h0.3v1h-1v0.3h0.3v0.3h0.7v0.7h-0.3v0.3h0.3v0.7h-0.3v1h0.7
	v-0.3h0.3V272l0.3-0.3c0.3,0.7,0.3,1.3,0,2h-0.3v0.3h-0.3v0.3h-0.3v0.3l-0.3,0.3v0.3h0.3v0.7h-0.7v0.3h-0.3v0.3l-0.3,0.3l-0.3,3.3
	h-0.7v1.6h-0.7v1h0.3c1,0,0.3,1,0.3,1.6h0.7v0.7h-2v0.7h0.7v0.7H167v0.7h1v0.7h-1v0.7h0.3v0.3H167v0.3c0,0.3-0.7,0-0.7,0.3v1
	c0.3,0,1,0,1,0v0.7H167l0,0l-0.3,0.3v0.3h0.3v0.3l-0.3,0.3v0.7h0.3v0.3h0.7v1H167v0.3h-0.3v0.3h0.3v1h-0.3v0.3h-0.3v0.3l-0.3,0.3
	v0.3h-0.3v1h-0.3v3.3H165v1h-0.3v0.3H164v0.7h-0.3l0.3,1h0.3v1h0.3v0.3h0.3l0.3,0.7h0.3l0.3,0.3h0.3v0.3h0.3l0.3,0.3h-0.3v1.3h0.3
	l0.7,0.3H167v0.3h0.3l0.7,0.3h1v0.3h0.3v0.3h0.7V310c0-0.3,0.7,0,1,0v-0.7h-0.3V309l0.3-0.3v-0.3h0.7c0-0.3,0-0.7,0-1h1.6v-1.3h0.7
	v-2.3h0.3l0,0c0-0.3,0.3-0.3,0.7-0.3v-0.3h0.3v-0.7h-0.3v-0.3h-1.3v-0.7h0.7v-0.3h0.3v-0.3l0.3-0.3c0.3,0,0.7,0,0.7,0.3l0,0l0.3-3
	h1.3v-0.7h0.7v-1.6h-0.3v-1h1.3v-2h-0.7v0.3l-0.3,0.3V293h-0.3v-0.3c0.3-0.3,1,0,1.6,0v-0.3h0.3V292l0.3-0.3v-0.3h0.3V291
	c0.7-0.3,0-1.3,0.3-2h0.7l0,0l0.3-0.3v-0.3h-0.7V288h-0.3v-0.3c0.3-0.3,1,0,1.3,0v-0.3h0.3l0,0l0.3-0.3v-2.6h0.7v-0.7h0.7v-3.3h0.3
	v-0.3h0.3v-0.3h2.3v1.6h1v0.7h-0.3v0.3H187v-0.3h-0.3v0.7h0.7v0.7h-0.7v0.7h0.7v0.7H187v1h0.3v0.3h0.3v-0.3h0.3v-0.7h0.3v0.3h0.3v1
	H188v0.3l-0.3,0.3v1.3h0.3c0,0.7,0,1,0,1.6h-0.3v0.7h0.3l0.3,0.3h0.3v0.7h-0.3v0.7h0.3v0.7H188v0.3l-0.3,0.3v0.3h0.3v0.3h0.3V294
	l0.3-0.3c0.7-0.3,0.3,0.7,0.3,0.7h1.3c0,0.7,0,1.3,0,2h-0.3v0.7h0.3v0.3h0.3v0.3h0.3l0.3,0.3h0.3v0.3h0.3c0.7-0.3,0.3,0.3,0.3,0.7
	h1.3v0.3h0.3l0.3,0.3h1.3l0,0l0.3-0.3l0,0l0.3-0.3l0,0h0.3v-0.7h0.3v-0.3h0.3v-0.3l0.3-0.3v-1h0.3v0.3h0.7l0,0l0.3-0.3v-0.3h-0.3
	v-0.7h0.3v-0.7h-0.3l-0.3-0.3h0.3V294l0.3-0.3v-1h3V292h-0.7v-0.3h-0.3v-0.3l0.3-0.3v-0.7h-0.7v-0.7h1.3v0.3h0.3v-0.7h0.3V289
	l0.3-0.3c0,0.3,0,0.7,0,1h0.7v-1.3h0.3c1,0,0.3,1,0.7,1.3h0.3v-0.3h0.3v-0.7h0.3v0.3h0.7v-0.7h0.7v-3.6h0.3c0.7,0,0.3,0.7,0.3,0.7
	h0.3v0.3h0.3l0.3,0.7h0.3v-0.3l0.3-0.3v0.3h0.3v-0.7h0.3v-0.7H209v-0.3h-0.3v-0.3l0.3-0.3v-0.7h-0.7v-0.7h0.3l0.3,0.3h0.3v0.3h2
	v-0.7h-2v-0.7h3v0.3h0.3v-0.7h0.3v-0.3l0.3-0.3v0.3h0.7v-0.7h-0.7v-0.7h0.3l0,0h0.3v-0.3l0.7-0.3v-1.3h-0.3v-1h0.7v-0.3l0.3-0.3
	v-0.3h0.3l0.3,0.3h0.3v-0.3h0.3v-0.3l0.3-0.3c0.3,0.3,0,1,0,1.6h0.3v0.3h0.3c0,0.3,0,0.7,0,1h1.3v-0.7h0.7v-0.3h-0.3v-0.7h0.7v-0.3
	l0.3-0.3v-0.3l0,0v0.3h0.7v-0.7h-0.7v-0.7h1v0.3h0.3v-0.3l0.3-0.3l0.3,0.3h1v1h-0.7v0.3h-0.3l0,0l-0.3,0.3v1.3h0.7v0.7h0.3v0.3h0.3
	v0.3h0.3v-0.7h0.3l0,0l0.3-0.3l0.3,0.3h0.3v0.3h-0.3v0.7h0.7v1h-0.3v1h0.3v0.3h-0.3v0.7c0.7,0,0.3,1,0.3,1.3h0.3v0.3
	c0,0.3-0.3,0-0.7,0.3l0,0h-0.3v0.3l-0.3,0.3l0,0h-0.3v1h0.3l0.7,0.3h0.3v0.3h-0.3v3.3h0.7v3.9h0.3c0.7-0.3,0.3,0.3,0.3,0.7h0.7v1
	h-1.3v0.7h0.3v0.3h1v2.6h0.3l0.3,0.3l-0.3,0.3v0.3h-0.3v0.3h0.3v0.3h0.3l0.7,0.3h0.3v0.3h0.3v0.7h-0.3v1.3h0.3v0.3h0.3v-0.3h0.3v0.3
	h0.3v1H229v1h2.6v0.3h0.3v0.3h1v1.3h0.3c0.7,0,0.3,0.7,0.3,1c0.3,0,0.7,0,1,0v0.3h0.3v0.7h0.3v-0.7h0.3l0,0c0.7-0.3,1.6,0,2.6,0v0.3
	h0.3v-0.7h0.3v-0.3h1v0.3h0.7v-1.3h0.7v-2h-1.3L239.1,304.5z"/>
<path class="st1" d="M195.5,264.1v-0.3V264.1z"/>
<polygon class="st1" points="195.5,264.1 195.8,264.1 195.8,264.1 "/>
<path class="st1" d="M299.5,293h-0.7v-0.3h-1.3V292h0.3v-0.7h0.3v0.3h0.7v0.3h0.3v0.3h0.3L299.5,293L299.5,293z M297.5,290.3h0.7
	v0.3L297.5,290.3L297.5,290.3z M296.6,292L296.6,292l-0.3-0.3h0.3V292z M295.6,292.6h-1V292h0.7L295.6,292.6L295.6,292.6
	L295.6,292.6z M292.9,291.3h-1V291L292.9,291.3L292.9,291.3z M291.6,294H291v-0.3L291.6,294L291.6,294z M291.6,295.9H291v-0.3
	L291.6,295.9L291.6,295.9z M291,296.6h-0.7v0.3l-0.3,0.3v0.3h-0.3v-0.3h-0.3v-0.3H289v-0.3H291L291,296.6z M291,298.9h0.7v0.7H291
	V298.9z M292,303.1v1h-0.7v-0.7C292,303.5,291.3,302.8,292,303.1 M292,300.2h0.7v0.3l-0.3,0.3v0.3H292L292,300.2L292,300.2z
	 M292,298.9h0.3v0.3L292,298.9L292,298.9z M292.6,302.8h0.7v0.7h-0.7V302.8z M288.7,288.4h-1v0.3L287,289l0,0h-0.3v-0.3l-0.3,0.3
	l0,0h-0.3l-0.3-0.3h-0.3v-1.6h1.6v0.3h0.3v0.3h1v0.7H288.7z M282.1,302.2h-1.3v-0.3h-0.3v-0.3h0.3v-0.3h-0.3l-0.3-0.7h-0.3
	c0-0.3,0.3-1-0.7-0.7l0,0v-1h0.3v0.3h0.3c0,0.3-0.3,1,0.7,0.7h0.3l0.3,0.3h0.3v0.3h0.3v0.7h0.7v1H282.1z M281.5,299.5L281.5,299.5
	L281.5,299.5L281.5,299.5L281.5,299.5z M277.9,270.7h-1v-0.3h-0.3V270c0.3,0,0.3-0.3,0.3-0.3h0.7v0.3h0.3L277.9,270.7z M276.9,277.6
	h-0.3l0,0h-1v-1h1L276.9,277.6L276.9,277.6L276.9,277.6z M276.2,289h-1v-0.3h-0.3l-0.3-0.3h-0.3V288h-0.3v-0.3c-0.3,0-1,0-1.3,0v0.3
	h0.3v0.3h0.7v0.3l-0.3,0.3l0,0l-0.7,0.3v0.3h0.3l0.3,0.3h0.3v0.7h-0.3v-0.3h-1V290h-0.3v-0.7h-0.3V289h-0.3v-0.3l0.3-0.3l0,0h0.3
	v0.3h0.7V288h-0.7v-0.7h-1v0.3h-0.3v0.3H270v0.7h0.7v0.3H270l-0.3-0.3h-0.3v0.7H269v0.3h-0.3c0-0.3,0.3-1.3-0.7-1l-0.3,0.3l0,0h-1
	v-0.7c-0.3,0-0.7,0-1,0V288h-0.3v0.7l-0.3,0.3l0,0h-0.7v0.7l-0.3,0.3v0.3h-0.7V290h0.3v-1h-0.7v-0.3h-0.3V288l-0.3,0.3v0.3
	c-0.3,0-1.3,0-1.3,0v0.3l-0.3,0.3V289h-0.3c0,0.3,0,0.7,0,1h-0.3l-0.3-0.3h-0.3V289l0.3-0.3v-0.3h0.3v-0.7h0.3v-0.3h-0.3v-1l0.3-0.3
	v-0.3h0.3v0.3l0.3-0.3v-0.3h0.3v0.3h0.3v-0.3l0.3-0.3v-0.3h0.3v-0.3h0.3v-0.7h-0.3v-1c0.3,0,1,0,1-0.3v-0.3h-0.3v-0.7l0.3-0.3v-0.3
	h0.3c0-0.7,0-1.3,0-2h-0.3v-0.7h1.6v-0.7h-0.3v-0.3h0.7v-0.3h0.3v-1h-0.7c0-0.3,0.3-1.3-0.3-1.3h-0.3v-2h0.3l0.3,0.3h0.3v0.3h0.3
	v0.3h0.3v-0.3l0.3-0.3v-0.3H266V272h0.7v-0.7h2v1.3h-0.3v0.3h0.3v0.3c0.7,0,1.3,0,2,0V273h0.3v0.3h0.3v0.7h-0.7v-0.3l-0.3,0.3v0.3
	H270c0,0.7,0,1.3,0,1.6h0.7v0.3h0.3v0.3h0.3v0.3H271v0.3h-0.3v0.7h0.7v-0.3h0.7v1.6h-0.3l0.3,0.3h0.3v0.3h-0.3v0.7h0.3l0.3,0.3h0.3
	v0.3h-0.7v0.3l-0.7,0.3l0.3,0.3h0.3v0.7h-0.3l0.3,0.3h0.3l0.3,0.3h0.3v1h-0.3v0.7h0.3l0.3,0.3l0.3-0.3v-0.3h1.3
	c0.3,0.3-0.3,1,0.3,0.7h0.3v1.3h0.7L276.2,289z M274.6,294.9L274.6,294.9L274.6,294.9L274.6,294.9L274.6,294.9z M273.3,291h-0.3
	v-0.3L273.3,291L273.3,291z M263.7,276.9L263.7,276.9l0.3,0.3h0.3v0.7h-0.7V276.9z M264.7,272L264.7,272L264.7,272L264.7,272
	L264.7,272z M266.4,265.1h0.7c0,0.3-0.3,1,0.3,0.7h0.3v-0.7h0.7v0.3h0.3v0.3h0.3v1.6h-2v-0.7h0.3l-0.7-0.3h-0.3v-0.3H266v-1H266.4z
	 M270,260.2L270,260.2L270,260.2L270,260.2L270,260.2z M271,259.8h0.7v0.7H271V259.8z M271.6,258.5h0.7v0.3h-0.3v0.7h-0.3V258.5z
	 M272.3,255.2L272.3,255.2l0.3,0.7h-0.3V255.2z M272.6,256.2c0.7,0.3,0-0.7,0.7-0.3v2h-0.3v-0.3h-0.3V256.2z M276.5,268.7
	c0.7,0.3,0-0.7,0.7-0.3v0.7h-0.7V268.7z M258.8,297.2L258.8,297.2l-0.3,0.3h-0.3v-1h0.3L258.8,297.2L258.8,297.2L258.8,297.2z
	 M257.5,275.9L257.5,275.9l-0.3-0.7h0.3V275.9z M256.9,298.9l-0.3,0.3l0,0l-0.3,0.3l0,0h-0.7v0.3l-0.7,0.3v0.3h-1v-0.3h0.3v-0.7
	h-0.3v-0.7h0.3l0.3,0.3h0.3l0.3,0.3l0.3-0.3v-0.3h0.7v-0.7h1v0.7H256.9z M255.9,301.2h-0.7v-0.3h0.7V301.2z M255.2,287.1v0.7h-0.3
	v-0.7H255.2z M253.6,282.1L253.6,282.1L253.6,282.1h-0.3h-0.3v-0.3h0.7v-1.3h1v0.3h0.3v0.3h-0.3v1H253.6z M253.3,302.5h-0.3v0.3
	h-0.3v-0.7L253.3,302.5L253.3,302.5z M252.3,301.5h0.7v0.3L252.3,301.5L252.3,301.5z M255.9,296.3L255.9,296.3l0.3,0.3h-0.3V296.3z
	 M251.9,308.1L251.9,308.1l-0.7,0.3v-0.7h0.3L251.9,308.1L251.9,308.1z M251.9,310.4h-1v0.3h-0.3V310l0.3-0.3h1V310.4z M249.6,290.3
	H249V290c0.7,0.3,0-0.7,0.7-0.3V290.3z M247.3,303.1h-0.7v1.3l-0.3,0.3v0.3H246c0-0.3,0-0.7,0-1h-0.3v-0.7l0.3-0.3v-0.3h-0.3
	l-0.3-0.3H245l-0.3-0.3h-0.3v-0.7h0.3v-0.3l0.3-0.3h0.7v1l-0.3,0.3l0,0h1.6v1H247.3z M247.3,305.8h-0.7v-0.7h0.7V305.8z
	 M245.7,299.9h0.7v0.3L245.7,299.9L245.7,299.9z M246.7,300.2h0.3v0.7h-0.3V300.2z M302.1,290h-1.3v0.3h-0.3V289h0.7l0,0h-0.3
	l-0.3-0.3h-0.3v0.7h-0.7v1h-0.3V290h-0.3l-0.3-0.7h-1.3v-0.7h0.3v-0.3h-0.3c-0.3,0-0.3,0-0.3-0.3h-0.3l-0.3-0.3c0.7-0.3,1.3,0,2.3,0
	v-2h-0.3l0,0h-0.3v-0.3h-0.3v-0.7h-0.3v0.3h-0.7v-0.3h-0.7v0.7h0.3v0.3h0.3v0.3h-0.3l0,0l-0.3,0.3l-0.3-0.3h-0.3
	c-0.7,0-0.3-1-0.7-1.3l0,0v0.3h-1.3v-0.3h-0.3v0.7h-0.3l0,0h-0.3v0.3h-0.7v0.7h-1v-1h-2v0.7h0.3v0.3c-0.3,0.3-1,0-1.3,0v-1h0.3v-0.3
	h-0.7l0,0H287v0.3c-0.3,0.3-1.3,0-2,0v-1h-0.3l-0.3-0.3h-0.3v0.3h-0.3v0.3l-0.3,0.3l0,0h-0.3v0.3h0.3l0.3,0.3h0.3v0.3
	c-0.3,0.3-1,0-1.6,0v-0.3h-0.3v-0.7h0.3v-0.7h-0.3c-0.7,0.3-0.3-0.3-0.3-0.7h-3.3v-0.3h-0.3v-0.3h0.3v-0.7h-0.7v-0.7h0.7v-1h0.7
	v-0.7h0.3v0.3h0.7v-1h-0.3c-0.3-0.3-0.3-1-0.3-1.3h-0.3v-0.3l0.7-0.3l0,0h0.3v-0.3h-0.3v-0.3h-0.3v0.3l-0.3,0.3v-0.3h-0.3v0.3
	l-0.3,0.3v0.7h0.3v0.3c0,0.3-0.7,0-0.7,0.3v-3h0.3v-0.7h0.7l0,0l0.3-0.3v-0.3h-0.3l-0.7-0.3h-0.3v-0.3c-0.3,0-1,0-1,0v-0.7h0.7v-3.3
	h-0.3c-1,0-0.3-1-0.3-1.3h-0.7v-0.7h-0.3c-0.7,0.3-0.3-0.3-0.3-0.7h-0.3v-0.7h-0.3v-0.7h0.3v-0.7h-0.3v-0.3h-0.3l-0.3-0.3h0.3v-2.3
	h-0.7v-2h-0.7v1.6h-0.7c0-0.7,0-1.3,0-1.6h0.3v-0.3h0.3v-1h0.7v-0.7h-1.3v-0.7h1.3v-0.7h-1.3v-0.7h-0.7v-1h0.3v-0.7h-0.7v-0.3h-0.3
	v-0.3h-0.3c0-0.3,0-0.7,0-1h0.7v-0.3h-0.3v0.3h-0.3v-0.3h-1v0.3H270v-0.3h-0.3v-0.3h0.3v-0.7h-0.7V252h-0.7v-0.3h-1l-0.3,0.3v0.3
	l-0.3,0.3v0.3c-0.3,0.3-1,0-1.6,0v0.3l-0.3,0.3v0.3h-0.3v0.7h-0.3v1.3h-0.3v0.3l-0.3,0.3v0.3h0.7v-0.3h0.3v0.7h-0.7v0.3h-0.3v0.3
	h0.3v0.3h0.3l0.3,0.3c-0.3,0.3-1,0-1.3,0v0.7h0.3v0.3h-0.3v0.3l-0.7,0.3v0.7c0.3,0,1,0,1,0v0.3h-0.3v0.3h-0.7v0.3h0.3v0.7h-1v0.3
	l-0.3,0.3v0.3h-0.3v1.6h-0.7c0,0.7,0,1.3,0,2h-0.7v0.7h1.3v0.7h-1.3v1h0.3v0.3h0.3l0.3,0.3h-0.3v0.3l-0.3,0.3v0.3h0.7v-0.3h0.7v0.7
	h-0.3v0.3l-0.3,0.3v-0.3h-2v-0.3h-0.7v0.7h0.3v1h-0.3v-0.3h-0.7v1.3h0.7v-0.3h0.3v0.3h0.3v0.3l-0.7,0.3v0.3h-0.3l0,0
	c-0.3,0.3-1.3,0-1.6,0v0.7h0.3l0.3,0.3h-0.3v0.3h-0.3v0.3h0.3v0.3h0.3l0.3,0.3h-1v2.3h0.3v0.3h-0.3v0.3h-1v-0.7h-0.3v-0.3h-0.3v0.3
	l-0.7,0.3v0.7h-0.7v-0.3h-0.3v0.3h-0.3l0,0c0,0.3-0.3,0-0.7,0.3v0.7h1.3v1.6h-0.3c-0.7,0.3-0.3-0.3-0.3-0.7h-1v1h-0.3v0.3l-0.7,0.3
	v0.3h0.3l0.3,0.3h0.3v-0.3l0.3-0.3l0.3,0.3h0.3v0.3h-0.3v-2.3l-0.3,0.3v-0.3h-0.7v0.7H249v0.7h0.3c1,0,0.3,1,0.3,1.3h0.7v-1.3h0.3
	c0.7,0,0.3,1,0.3,1.3h0.7v-0.3h0.3v1h-1.3l0,0h-1v-0.3h-0.3v0.3H249v0.3h-0.3l0,0l-0.3,0.3v1.3h0.3v0.3h1.6v0.7h-1.6v-0.3h-0.3v0.7
	l-0.3,0.3l0,0l-0.3,0.3l0,0h-0.3v0.3h0.3v0.7h-1v0.3l0,0v0.3h0.7v-0.7h1.3v0.7h0.3v0.3h-0.3v0.3c-0.3,0.3-1,0-1.3,0v0.3h0.3v0.3h0.3
	l0.3,0.3h0.3v0.3h0.3v0.7h-0.3v0.3c0,0.3-0.7,0-1,0.3v1.3h0.7v0.7H248v0.7h-0.3v0.7h-1.3v-1h-0.7v0.3h-0.3v0.3h0.3v0.3l-0.3,0.3v0.7
	h-0.7v0.3h0.3v0.7h-0.7v2.3h-0.3v0.3h0.3v0.3h0.3l0.7,0.3l-0.3,0.3v0.3h-0.3v0.3h0.3v0.3h0.3v1h0.3v-0.3h0.3
	c0.7-0.3,0.3,0.3,0.3,0.7h0.3v0.7h0.3v0.3h1v0.7h1v0.3h0.3c0.3,0.7,0,1.3,0.3,2.3h0.3l0.7,0.3l0,0v0.3h0.3v0.7h1.6v-0.7h0.7v-2h-0.3
	l-0.3-0.3l0.3-0.3v-0.3h0.3v-1h0.7v-1.6h1.3v-1h-0.3v-0.3h-1v1.3h-1.3v-0.3h-0.3c0-0.3,0-1,0-1.6h1v-0.7h0.7v-0.7h0.7v-0.7h0.3v0.3
	h0.3v0.3h1v-1h0.3v-0.3l0.7-0.3v-0.3h-0.7v-0.3h-0.3v-0.3c0.3-0.3,1,0,1.3,0v-0.7h0.3l0.3,0.3h0.3l0,0h0.3c0.3,0,0.7,0.3,0.3,0.3
	h0.3l0.3,0.3h1.6v-0.7h-0.3v-0.3h-0.3v0.3h-0.7v-0.7h2.6v0.7h-0.3v0.3h0.3v0.3c0.3,0,0.7,0,1,0v0.7h0.7c0-0.3,0-0.7,0-1h0.3v0.3h1
	v-0.7h-0.7v-0.3h-0.3v-0.3c0-0.3,1,0,1.3-0.3v-0.7h0.3c0.7-0.3,0.3,0.3,0.3,0.7h2v0.7h-0.3v0.3h0.3v0.3h4.3v-1.3h0.3
	c0.7,0,0.3,1,0.3,1.3h0.7v-0.7h1.3v-0.7h-1.3v-0.7h-1.3v-0.7h-2v-0.7h-0.7v1h0.3l0.3,0.3c0,0.3-0.3,0-0.7,0.3v0.7h0.7v0.7h-1.3v-1.3
	h-0.3v-0.3H269v-0.3h-0.7v-0.3l0.3-0.3v-0.7h0.3l0.3,0.3h0.7v-0.3h0.3v-0.3l0.3-0.3v-0.7h0.3c0.3,0,0.3,0.3,0.3,0.3h0.3v0.3h0.3v0.3
	h0.3l0,0l0.3-0.3v-0.3c0.3-0.3,1,0,1.3,0v0.7h-0.3v1h1v-0.3l0.3-0.3l0.7,0.3l-0.3,0.3v0.3l-0.3,0.3v0.3h0.3v0.3h0.3v-0.3
	c0.3-0.3,1,0,1.6,0v0.3h0.3v0.3h0.3v-0.3h0.7v1.6h0.7v1.6h0.3l0.3,0.3h0.3c0,0.3,0,1,0,1.6h-0.3v0.7h0.3c0.7-0.3,0.3,0.3,0.3,0.7
	h0.3v0.3h0.3v-0.7h0.3v-0.3h0.3v0.3h0.7v-0.3h0.3v0.3h0.3v0.3h-0.3v0.7h0.3c0.7-0.3,0.3,0.7,0.7,0.7s0.7,0,1,0v0.3h-0.3v0.3h-0.3
	l-0.3-0.3h-0.3v0.7h-0.3v0.7h0.3l0.3,0.3h0.3v0.7h0.3v0.7h0.3c1,0,0.3,1,0.3,1.3h1.3v-0.7h0.7v-0.7h-0.7v-0.7h2.6v2h1.6v-0.3H290v-1
	h0.3v0.7h0.3v-1h0.3v-0.3h0.7v-0.3h-0.3v-0.3H291v-0.3h1v-1.6h0.7v-1.3h0.3v0.3h0.3v0.7h0.3v-0.3l0.3-0.3v-0.7h-0.3v-0.3
	c0-0.3,0.7,0,1-0.3v-0.7h-1.3v-0.3h-0.7v0.7H292v-0.7h0.3v-0.3l0.3-0.3v-0.3h0.3l0.3,0.3h0.3v-0.7h0.3v-0.3l0.3-0.3v0.7h0.3l0.3,0.3
	h0.3v-0.3h0.3v-0.3h-0.3v-0.7h0.7v-1h-0.7v0.3h-0.3v-0.3h-0.3v-0.7h-0.3v0.7h-0.3v0.3h-0.3l-0.3-0.3h-0.3v-0.3l0.3-0.3v-0.7h-0.3
	l-0.3-0.3H291v-0.7h0.3l0.3,0.3h1v-0.3h-0.3v-0.3H292v-0.7h0.3v0H292v-0.7h0.3c1-0.3,0.3,0.7,0.3,1h0.3v-0.3h0.7v-0.3l0.3-0.3v-0.3
	h0.3v-0.3l0.3-0.3v-0.3h1v0.7h1.3v-0.7h-0.3l-0.3-0.3h0.3V293l0.3-0.3l0.3,0.3h0.3v-0.3l0.3-0.3l0.7,0.3h0.3v-0.3l0.3-0.3v0.3h0.3
	V292l0.3-0.3V291h0.3l0.3,0.3h0.3v-0.7h0.7v-0.3h0.3V290c-0.3,0-0.7,0-1,0v-0.7h1V289h-0.3L302.1,290z"/>
<polygon class="st1" points="334,251 333.6,251 333.6,251.3 334,251.3 "/>
<path class="st1" d="M101.7,295.6l-0.3,0.3v0.3h-1v-0.7l0.3-0.3h1V295.6z M101,293L101,293L101,293L101,293L101,293z M99.7,303.1
	l-0.3,0.3v0.3h-0.3v-1h0.7V303.1z M97.4,304.5h-0.3v0.3h-0.3v-0.3h-0.3v-0.3h1C97.4,304.1,97.4,304.5,97.4,304.5z M91.5,309.7h-1.6
	v-1h0.3v-0.7h1v0.3h-0.7v0.7h1C91.5,309,91.5,309.7,91.5,309.7z M88.9,310h-0.7v0.3h-2.3v0.3h-1v-1c0.3,0,1.3,0.3,1.3-0.3V309h0.7
	v-0.3h0.3v-0.7h-0.3v-0.3h0.7c0,0.3-0.3,1.3,0.3,1.3h0.3L88.9,310L88.9,310L88.9,310z M80.4,301.8h-0.7v-1c0.7,0.3,0-0.7,0.7-0.3
	V301.8z M79.1,302.5h-0.3v0.3h-2.3v-1h0.7v0.3c0.7,0,1.3,0.3,1.6,0l0,0h0.3V302.5h0.3H79.1z M78.7,311.7L78.7,311.7l-0.3,0.3h-0.3
	v-0.3h-1v-0.3l0.3-0.3h0.7l0.3,0.3h0.3V311.7z M73.2,301.8L73.2,301.8L73.2,301.8L73.2,301.8L73.2,301.8z M72.2,310L72.2,310
	L72.2,310L72.2,310L72.2,310z M70.9,310.4L70.9,310.4l-0.3-0.3h-0.3v-0.3c0.7,0.3,0-0.7,0.7-0.3C70.9,309.4,70.9,310.4,70.9,310.4z
	 M70.2,307.7L70.2,307.7h-0.7v-0.7h1L70.2,307.7L70.2,307.7z M67.9,307.4l-0.3,0.3l0,0h-1.6v-1c0.7,0.3,0-0.7,0.7-0.3l0.3,0.3h0.3
	v-0.3h0.7V307.4z M60,303.1h-1.3v-1H60V303.1z M85.9,282.5h-0.7l0,0H85.9L85.9,282.5z M85.3,291.7h-0.7l-0.3-0.3H84V291h1.3
	L85.3,291.7z M83.6,281.5L83.6,281.5l-0.3-0.3H83v-0.3h0.7V281.5z M82.7,291.7h-0.3v0.3H82v-0.7h-0.3v-1h-2v-1h0.7v0.3h2.3V291.7z
	 M79.1,290h-0.3v0.3h-0.7v-0.7c0.7,0.3,0-0.7,0.7-0.3L79.1,290L79.1,290L79.1,290z M74.8,276.6c-0.3,0-0.7-0.3-0.7,0.3v0.3h-0.7
	v-0.7c1,0.3,0.3-0.7,1.3-0.3V276.6z M69.5,276.2h-0.7v0.3h-0.3v-0.7c0.7,0.3,0-0.7,1-0.3V276.2z M64.6,285.1H64v-0.3L64.6,285.1
	L64.6,285.1z M63,273.3h-0.3v0.3h-0.3l-0.3-0.3h0V273h1V273.3z M61.7,272.6L61.7,272.6L61.7,272.6L61.7,272.6L61.7,272.6z M53.5,273
	h-1.3v-0.7h1.3V273z M53.1,279.5h-0.7v-0.7h0.7V279.5z M65.3,268.4L65.3,268.4L65.3,268.4L65.3,268.4L65.3,268.4z M70.2,266.4h0.7
	v0.7h-0.7V266.4z M73.8,265.7h2v0.7h-1.6L73.8,265.7L73.8,265.7L73.8,265.7z M75.4,256.6L75.4,256.6L75.4,256.6L75.4,256.6
	L75.4,256.6z M81.7,263.8L81.7,263.8L81.7,263.8L81.7,263.8L81.7,263.8z M81.7,255.9h1v0.3L81.7,255.9L81.7,255.9z M81.7,254.6h1.6
	v0.7h-1.6V254.6z M85.3,262.8L85.3,262.8l0.3,0.3h-0.3V262.8z M102.3,294.6c-0.7,0-0.3-1-0.3-1.3h-0.3v-0.7h-0.3
	c-0.3-0.7,0-1.6,0-2.6H101c-0.7,0-0.3-0.3-0.3-0.7h-0.3v0.3h-0.7v-0.3h-0.7v0.7h-0.3v0.3h-0.3V290h-0.7l0,0h-0.3v-0.3h-0.3V289h-0.3
	v-0.3h-0.7V288h-0.3v-0.3h0.3v-0.3h2v-0.3h-0.3l-0.3-0.3h-0.3v-0.3h-0.3v-0.3h-0.3l0,0h-0.3v0.3c-0.3,0.3-1.3,0-2,0v-1.3h-1v-0.3h-1
	v-0.3h-0.3v-0.3h-0.3v-0.3h0l-0.3-0.3h-1.3v-0.7h0.3v-0.3h-0.3v-0.3h-0.3v0.3h-0.7v-0.7h-0.3c-0.7,0-0.3-0.7-0.3-0.7h-1.6v0.3h-0.3
	v0.3l-0.7,0.3v0.7H85v0.3h-0.3v-0.3h-0.3v-0.7h0.3v-0.3h-0.3v-0.3h-0.7v-0.7H82v-0.3h-0.7v-0.3h-1v0.3h0.3l0.3,0.3h0.3v0.3h0.3v0.7
	h-0.3l-0.3-0.3h-0.3l-0.3-0.3h-0.7v-0.3h-0.3l-0.3-0.3h-0.3l-0.3-1l0,0v0.3h-1v-1h1v-0.3l0,0v-0.3h-0.3v-0.3h-0.3v-0.3h-0.3
	l-0.3-0.3h-1v-0.3h-0.3v-0.3h-0.3v-0.3h-0.3v-0.3h-1.6v0.3l-0.3-0.3v-0.3h-0.3v-0.7h-0.3l0,0l-0.7,0.3v0.7h-0.7l0,0h-1.3v-1.3h-0.7
	l0,0l-0.3,0.3v-0.3h-0.3v-0.7l0,0v0.3h-0.3c-0.7,0.3-0.3-0.3-0.3-0.7h-1.3v0.7c-0.3,0-0.7,0-1,0v-0.3h-0.3v-0.3H65l-0.3-1h-0.3v-0.3
	H63V272h-0.7v-0.7c0.3,0,1,0,1,0v0.3H64v-0.3h-0.3v-0.7h0.7v-0.3l0.3-0.3v-0.3h-0.3V269h0.3v-0.3H65l0.7,0.3l-0.3,0.3l0,0l0,0v0.3
	c0.3,0,0.7,0,1,0v0.7h0.7v-0.7h1.6v-0.3l0.3-0.3v-0.3c-0.7-0.3-0.3-1-0.3-1.6h-0.7v-0.3h0.3v-0.3h1.3v2h1.6V268h0.3v-0.3l0.3-0.3
	l0,0h0.3v-0.3l0.7-0.3v-0.3h-0.3v-0.7h0.3v0.3h0.3c0,0.3,0,0.7,0,1h0.7v-0.3h0.3v0.3h0.3v0.7h0.7v-0.3l0.3-0.3v-0.7h0.3v0.7h0.3v0.3
	h0.3v-0.3l0.3-0.3c0.3,0,0.7,0.3,0.3,0.3h0.3v-0.3l0.3-0.3v-0.7h-0.3v-0.3c0-0.3,0.3,0,0.7-0.3v-0.3h0.3v-0.7h0.3v0.3h0.3v0.3h-0.3
	v0.3h-0.3v0.7h0.7v-0.3h0.3v0.3H80v-0.7h-0.3l0.3,1h-0.3v-1H83v0.3h0.3v0.3h2.3v-0.7h-0.3v-1h0.3v-0.3h0.3v-0.3c0.3,0,0.7,0,1,0v0.3
	h1v-0.3l0.3-0.3v-0.3l0,0h-0.7h-0.3l-0.3-0.3h1v-0.3h0.3v-0.3l0.3-0.3v0.3h0.3v0.3h1.6v-0.7h1l0,0h0.3v-0.7h0.3v-0.3h0.3v-0.3
	l0.3-0.3l0,0h0.3v-0.7h-0.3v-0.3h0.7v-1h-0.3v-0.3h-0.3v-0.3h-0.3c0-1,0-2,0-3h-0.3l-0.3-0.3h-0.3v-0.3l0,0v-0.3h-0.3v-0.3h-0.3
	l-0.3-0.3h-1l-0.3,0.3v0.3h-0.7v-0.3h0.3v0.3h-0.3l-0.7-0.3h-0.7v0.7h-0.3l-0.3-0.3h-0.3l0-0.3h-0.7v1H85v-0.3h-1.3v-0.7h-2.3v0.7
	h-0.7v0.7H81c0.7-0.3,0.3,0.3,0.3,0.7h0.3l0.3,0.3c-0.3,0.3-1.3,0-1.6,0.3v0.3H80v-0.3h-0.3v-0.3h-1.3v0.3l-0.3,0.3
	c-0.3-0.3,0-0.7,0-1.3h-1.3v0.7h-2v0.3c0.7,0.3,0.3,1.3,0.3,2h-0.7v-1.6h-0.7v1.3h-1v0.3h-0.3v0.3h0.3v0.3h-0.3l0,0
	c-0.3,0.3-1.3,0.3-1.6,0v-0.7h1.3v-1.6h-0.3v-0.3h-0.3v0.3h-0.3v0.3h0.3v0.7h-3.6v0.7h-0.7c0,0.7,0,1.3,0,1.6h-0.3v0.3h-0.3v-0.3
	l-1.3,0.3v0.3H65v0.3l-0.3,0.3c-0.3-0.3,0-1.3,0-1.6h-1.3v0.7h-0.7v0.7H63v0.3l-0.3,0.3v0.3h-0.3v-0.3H62v-0.7h-0.3v0.3H61v-1h-0.7
	v0.7h-0.7v0.7H60v0.3h0.3l0.3,0.3H61v1h-1v0.3h-0.3l-1-0.3l0.3-0.3v-0.7h-1v2h0.3v0.3h-0.3l-0.3-0.3h-0.3l-0.3-0.3h-0.3v0.3
	l-0.3,0.3v-0.3h-0.3c0-0.7,0-1.3,0-1.6h-0.7v2.6h-2.3v3.9h0.7v-0.7h-0.3v-0.3h0.3c0.7-0.3,0.3,0.7,0.3,0.7h0.3l0.3,0.3h0.3v0.3h0.7
	v1h-0.3v0.7h-0.7V270h-0.3v0.3h-1V270h-0.3v1.3h-1.6v0.3h-0.3v0.3l-0.3,0.3v0.3h-0.3v0.3h0.3v0.7h-0.7v1h-0.3l0,0l-0.3,0.3v1h0.7
	v0.7h-0.3v0.3h0.3l0.3,0.3h0.7v-1.3h-0.3v-0.3l0.3-0.3v-1.3h0.3v0.3h0.3l0.7,0.3l-0.3,0.3v2.3h0.7v0.7h-0.3v0.7h-0.7v2.3l0,0
	l0.3,0.3h1v1.3h0.7v-0.3l0.3-0.3v0.3h0.7v-0.3l0.3-0.3v-0.3h-0.3v-0.3h-1v-0.3h-0.3v-0.7h2v0.3h0.3l0.3,0.3h1.3v1h0.3v0.3h0.3
	l0.7,0.3h1v0.3H60v1.3h-1.3v1H59v0.3h0.3v0.7H60v-1h0.3v0.3h2v-0.3h0.3v0.3H63v0.7h1.6v-0.3H65c0.7-0.3,0.3,0.3,0.3,0.7h0.3
	c0.7-0.3,0.3,0.3,0.7,0.7h2.3v-0.3h0.3v-0.7h-0.3c0-0.3,0-1,0-1.6h0.7v1.6h0.3c0.7-0.3,0.3,0.3,0.7,0.7h2.6v1.3h0.7v-0.3l0.3-0.3
	v-0.3h-0.3v-0.7h0.3l0.7,0.3h0.7v-0.3l0.3-0.3v1h-1v1.6h0.3V288c0.7-0.3,1.6,0,2.3,0v0.7h2.3v0.3h0.3v0.3H80V289h0.3
	c1-0.3,0.3,0.7,0.7,1h1.3v0.7H83v-0.3h0.3l0.3,0.7H84v0.3h0.3V291l0.3-0.3v0.3h1.3v-0.3l0.3-0.3v0.3h0.3V290h0.3v-0.3h0.3l0.3,0.7
	h0.3v0.3h0.3v0.3h0.3l0.3,0.3h0.3v0.3h1.3V291h0.3v0.7h0.3l0.3,0.3h0.3v0.3h0.3v0.3h0.3v0.7h0.3v0.3h0.3v0.3h-0.3v0.3h-0.3v0.3
	l-0.7,0.3v0.7h0.3v0.3h0.7v0.7h-0.7v0.3h-1v-0.7h0.3v2.6h-0.3l-0.3-0.3h-1.6v0.7h0.7v0.7h-1.3v-0.7c-0.3,0-0.7,0-1,0v-0.3h-0.3v-0.3
	h-1.6v0.7H85v1h0.3v0.3h0.3v0.3h-0.3v0.3H85v-0.3h-1.6v0.3H83v-0.3h-0.3l-0.3-1H81v-0.3h-0.3v0.3h-0.3v1.3H80v-0.3h-1.6v-0.7h0.3v-1
	h-2v0.7h-0.7v-1h-0.3l-0.3,0.7h-0.3v0.3h-0.7v0.3h0.3v0.3h1v-0.3c0.3-0.3,1.3-0.3,2,0v0.3h0.3v0.3c-0.7,0.3-1.3,0-2.3,0v0.3
	c-0.3,0.3-1,0.3-1.6,0v-0.3h-1v-0.7h-0.3v-0.3h-0.3v0.3l-0.3,0.3l-0.3-0.3h-0.3c-0.7,0-0.3-0.3-0.3-0.7h-2.3l0,0
	c0,0.3-0.7,0-0.7,0.3v0.3h-0.3c-0.7,0-0.3-1-0.3-1.3h-1.3v-0.7h-0.7v0.3l-0.3-0.3v-0.7H65v-0.3h-0.3v0.3H64v-2h-2.3v-0.3h-0.3v-0.3
	h-1c0.7-1.3-1.6-0.3-2.3-0.7V294h0.3v-0.7h-0.3V293h-0.3v0.3h-0.3l-0.3-0.3h-0.3v0.7h-0.3l0,0l-0.3,0.3v0.3h-0.3v0.3l-0.3-0.3l0,0
	h-0.7v3.3h0.3v0.3h0.3v-0.7h0.3v-0.3h0.3c0.3,0.7,0,1.3,0.3,2h1.6v0.7h0.7v1h-0.7v-0.3h-0.3v0.3h-1v0.3h-0.3c0-0.3,0-0.7,0-1h-1v0.3
	l-0.3,0.3v1h0.3c1,0,0.3,1,0.3,1.3h0.3c0.7-0.3,0.3,0.3,0.3,0.7h2v-0.3h0.3l0.3,0.3h0.3v0.3l-0.7,0.3v0.3h-0.3v0.3h0.3v0.3h0v-0.3
	l0.3-0.3c0.7,0,0.3,0.3,0.3,0.7h0.3c0.7-0.3,0.3,0.3,0.7,0.7H61v-0.7h1v-0.7h0v-0.7h-0.3v-0.3h0.7v1.6h0.3c0.7,0,0.3,1,0.3,1.6h0.3
	c0.7-0.3,0.3,0.3,0.7,0.7h0.7v-0.3l0.3-0.3l0.3,0.3h0v0.3H65v0.3h-0.3v0.3c-0.3,0.3-1,0.3-1.3,0v-1H63v-0.3h-0.3v0.3l-0.3,0.3
	l-0.3,0.3l0,0v-0.7h-0.3v0.3l-0.3,0.3v1h0.3c0.7-0.3,0.3,0.7,0.3,0.7l0,0v0.3h0.3v-0.3h0.3c0.7,0,0.3,0.7,0.3,0.7c0.3,0,0.7,0,1,0
	v0.3h0.3v0.3h1V310h1.3v1.3h0.7V310h0.3v-0.3l0.3-0.3V309h1.3v1.3h-0.7v0.7h0.3c0.3-0.3,0.3,0,0.7,0.3h0.3v0.3h0.3l0,0h0.3v0.3h1.3
	l0,0h0.3v0.7h0.3v0.3h0.3v-0.7h0.3v-0.7h1v0.3h0.3v0.3h0.3V312h0.3l0.7,0.3h0.3V312h0.3l0.7,0.3h0.3v0.3h0.3v-0.3l0.3-0.3l0.3,0.3
	h0.3v0.3h1.6v-0.3h0.3l0,0L81,312v0h0.3v-0.3h0.3v0.3h1v-0.7H83V311h0.3l0.3,1h0.7v-0.3h0.3c1-0.3,0.3,0.7,0.3,1h0v-1h0.3l0.3,0.3h1
	v-0.3h0.3l0.3,0.7h0.3v0.3h0.3v-0.3c0-0.3,0.3,0,0.7-0.3c0-0.7,0-1.3,0-2h1.3v0.3h0.3V310h0.3c0.7-0.3,0.3,0.3,0.3,0.7h0.7
	c0-0.3,0-0.7,0-1h0v-0.3h1c0-0.7,0-1.3,0-2h1.3v-0.3h-0.3l-0.3-0.3h-0.3c0-0.3,0-1,0-1.6h2v-0.7h0.3l0.7,0.3h1.6v-0.3l0.3-0.3v0.3
	h0.3v-0.3l0.3-0.3v-0.7h0.7v2h0.7v-1.6h0.3l0.7,0.3h0.3v-0.7h0.3v-0.3h0.3v-1.6H101v-0.7h0.3v-0.7h0.3v-0.3h0.3v-0.3l0.3-0.3v-0.3
	h-0.7v0.7h-0.3v0.3h-0.7v0.7h-0.7v-0.7h0.3v-0.3h0.3v-0.7h0.3v-0.3l0.7-0.3v-0.3l0.3-0.3v1.6h0.3v-0.3H101v-0.7h1.6v-2.3h-0.3
	C102.3,295.3,102.3,294.9,102.3,294.6"/>
<polygon class="st1" points="-34.1,252.9 -33.8,252.9 -34.1,252.9 -34.1,253.3 -34.1,253.3 "/>
<path class="st1" d="M-33.5,252.9L-33.5,252.9c-0.7-0.7-0.3,0-0.3,0H-33.5z"/>
<path class="st1" d="M158.8,303.1L158.8,303.1L158.8,303.1L158.8,303.1c-0.3,0.3-1,0.3-1.3,0.3v0.3h-0.7v0.7h0.3v-0.3
	c0.3-0.3,1,0,1.6,0v0.3h0.3v-0.3h0.3L158.8,303.1L158.8,303.1L158.8,303.1z"/>
<path class="st1" d="M151.2,298.9h-0.7v-0.3l0,0v-0.3h0.3l-0.3-0.3h-0.3v-0.3h0.3v0.3h0.7V298.9z M151.6,306.4h-1.3v-0.3
	c0.3,0,1.3,0.3,1-0.3h0.3V306.4z M149.3,307.4h-1.6v-0.3L149.3,307.4L149.3,307.4z M147.9,299.2h0.7v0.3h0.3v0.3h-0.3v0.3h-0.7
	V299.2z M138.4,300.8h-0.3v-0.3L138.4,300.8L138.4,300.8z M137.4,310.7L137.4,310.7l-0.3-0.3h0.3V310.7z M136.5,310.4L136.5,310.4
	L136.5,310.4L136.5,310.4L136.5,310.4z M135.8,311L135.8,311L135.8,311L135.8,311L135.8,311z M125.6,300.8H125v-1
	c0.7,0.3,0-0.7,0.7-0.3V300.8z M124.7,300.2L124.7,300.2l-0.3,0.3H124c0-0.3,0.3-1-0.3-0.7h-0.3v-0.7h1.3
	C124.7,299.2,124.7,300.2,124.7,300.2z M122.7,309H122v-1.6c0.7,0.3,0-0.7,0.7-0.3V309z M120.7,297.6h-0.7v1.3h-1.3v-0.7l0.3-0.3
	v-0.3h-0.3v-0.3h-0.3l-0.3-0.3h-0.3v-0.7c0.7,0.3,0.3-0.7,1-0.3v0.7h0.3v0.3h0.3v-0.3h1L120.7,297.6L120.7,297.6L120.7,297.6z
	 M119.4,304.1h-0.3v-1.3h-0.3v-0.3c0.7,0.3,0-0.7,0.7-0.3V304.1z M151.2,294.3h-0.7V294L151.2,294.3L151.2,294.3z M148.9,285.8h-0.7
	v-0.3h0.7V285.8z M142.7,289.4H142V289h-0.3v-0.3c0.7,0.3,0-0.7,0.7-0.3v0.3h0.3V289.4z M138.8,289.7L138.8,289.7l-0.3,0.3h-0.3
	l-0.3-0.3h-0.3v0.7h-0.7c-0.3-0.3,0.3-1-0.3-0.7h-0.3v-1h0.7v-0.3c0.7,0.3,0-0.7,1-0.3v0.3h0.3v0.3h0.3v0.3h0.3V289.7z M132.5,277.6
	h-0.7v-0.7h0.7V277.6z M127.9,285.8L127.9,285.8l-0.3,0.3h-0.3v-1h0.7V285.8z M127.6,287.1H127v-0.7h0.7V287.1z M126.3,285.8h-0.7
	v0.3h-0.3v-0.3H125c0-0.3,0.3-1.3-0.3-1h-0.3v-0.7h0.3v0.3h0.3v0.3h0.3v-0.3h0.3c0,0.3-0.3,1,0.3,0.7h0.3L126.3,285.8z M123.7,275.3
	l-0.7-0.3h-0.3v-0.3l0.3-0.3h1v0.7h0.3v0.3H123.7z M125,275.3h0.7v0.7H125V275.3z M122.7,274.9h-1v-0.7h1V274.9z M122,284.4
	L122,284.4L122,284.4L122,284.4L122,284.4z M119.4,281.5h-0.7v-0.7h0.7V281.5z M118.8,271h-0.7v-0.7h0.7V271z M116.1,281.2l-1,0.3
	v0.3h-1.3v-0.3h0.3v-0.3c0.3,0,1,0,0.7-0.3h1.3C116.1,280.8,116.1,281.2,116.1,281.2z M114.2,273.6L114.2,273.6l0.3,0.7h-0.3V273.6z
	 M113.8,279.8h-0.7v-0.7h0.7V279.8z M112.5,281.5L112.5,281.5l-0.3-0.3h0.3V281.5z M111.5,277.2h-0.3v0.3h-0.3v0.3h0.3v0.7l-0.3,0.3
	l0,0h-0.3l-0.3-0.3h-0.3v-0.7h0.7v-0.7l0.3-0.3L111.5,277.2L111.5,277.2z M109.6,273.9L109.6,273.9l-0.3-0.7h0.3V273.9z M123.3,268
	L123.3,268L123.3,268L123.3,268L123.3,268z M124,267.7h0.3v0.3L124,267.7L124,267.7z M126.3,267.4h1.3v0.7h-1.3V267.4z M135.8,264.8
	L135.8,264.8l0.3,0.3h0.3v0.3h-0.7V264.8z M146.6,258.5L146.6,258.5L146.6,258.5L146.6,258.5L146.6,258.5z M146.6,253.3h1v0.3h-1
	V253.3z M148.3,257.5h0.7v0.7h-0.7V257.5z M149.6,256.9L149.6,256.9L149.6,256.9L149.6,256.9L149.6,256.9z M150.2,257.2h0.7v1h-0.7
	V257.2z M156.1,290c0.7,0,0.3-0.7,1-0.3l0.3,0.3h0.3v0.3h-0.3v0.3h-1L156.1,290z M160.1,292.3L160.1,292.3L160.1,292.3l-0.7,0.3
	v-0.3h-0.3v0.7h-0.3v0.3l-0.3,0.3v0.3h-0.7v-1.6c-0.3,0-0.7,0-1,0V292h-0.3v-0.3h-0.3v-0.3h2.3V289h-0.7l0,0c-0.3,0.3-1.3,0.3-1.6,0
	v-0.3h-0.3v-0.3h0.3V288l0.3-0.3v0.3h0.7v-0.3l0.3-0.3v-0.3h-0.7v-0.3h-0.3v-0.3l0.3-0.3v-0.3h-0.3v-0.3c-0.3,0-0.7,0-1,0v0.3h-1.6
	l0,0h-0.3v0.7h-0.3v-0.3h-1.3v-0.3h-0.3v-0.3l0.3-0.3v-1h-0.7v-0.3h-0.7v0.3h-0.3v-1h-0.7v0.3h-0.3v0.3h0.3v0.3h0.3v0.3h-1l0,0
	l-0.3,0.3v-0.3h-1v-2.3h-0.3v-0.3h-0.7v-0.3h-0.3v-0.7H146v0.3c0,0.3-1,0-1.3,0.3v0.3h-0.3v0.3l-0.3,0.3v-0.3h-0.7v-0.3h0.3v-0.7
	h-0.3l-0.3-0.3h-0.3v0.3H142v-0.7h-1v-0.3h-0.3l-0.3-1h-0.3c-0.7,0.3-0.3-0.3-0.3-0.7h-0.7v0.3l-0.3,0.3v-0.7h-0.3v-0.3h-0.3v0.7
	h-0.3v0.3h-0.3c0-0.7-1.6-0.3-2.3-0.3v-0.3h-1v-0.3h-0.3v-0.3c-0.7,0-0.3-1-0.3-1.3l-2.6-0.7v-0.3h-0.3v-0.3h-0.3v-0.7h-2.3v0.3
	h-0.3c-0.7,0.3-0.3-0.3-0.3-0.7H127v-0.3h-0.3v0.3c-0.3,0.3-1,0-1.6,0v-0.3h-1.6v-1h-0.7v-1.3h-0.3v-0.3h0.3V271h0.3v-0.7h0.7l0,0
	c1-0.3,2.3,0,3.6,0v-0.7h1v-0.3h0.3V269c0-0.3,0.7,0,1-0.3V268h0.3c0.7,0,0.3,0.7,0.3,1.3h0.3V269l0.3-0.3V268h0.7v-1h-0.3v-0.3
	h-0.3v-0.3h0.3l0.3,0.3h0.7l0,0h0.3v0.7h-0.3v0.3h0.3v0.3h0.7v-0.3h0.3v-0.3l0.7-1.3v-0.3h0.3v-0.3h1v0.3h-0.3v0.3h-0.7v0.3h0.3v0.3
	h1.6v-0.7h0.7v-1.3h1.6v0.3h0.3l0.3,0.3h1v-0.7h0.7v-1h1v-0.3h1v0.3h0.3v0.3h0.7c0.7,0,0.3,1,0.3,1.6h0.7v-0.7h0.7v-0.7H145v-1h1.3
	v0.3h-0.7v0.3h0.3v0.3h0.7v-1h1.3v0.3h-0.3v0.7h1v0.3h0.3v-0.3h0.3v-0.7h-0.3v-0.3h0.7v-0.3l0.3-0.3v-0.3h-1v-0.3h-0.3v-0.7
	c0.3,0,0.7,0,1,0v0.3h1v-1h0.7v-4.9h-0.3c-0.3-0.3,0-0.7,0-1.3h-0.3v-0.7h-0.3v-0.7h-0.3v-0.3h-1v-0.3h-0.3v-0.3h-1.3l-0.3,0.3v0.7
	h-0.3v0.3l-0.7,0.3v0.3h-1v-0.3h-0.3l-0.3-1H143v0.7h-0.3l-0.3-0.3H142v0.7h-0.3c-0.7,0-0.3-0.7-0.3-1h-0.7v1h-0.3v-0.3h-0.3v-0.7
	h-0.3l0,0h-0.3v0.3h-0.3v0.3h-0.3v0.3h0.3v0.3l-0.3,0.3v0.3h-0.3v0.3l-0.3,0.3v0.3h-0.3v-0.7h-2.6v-0.7h-0.7v0.7h-0.7v1.6h-0.3v0.3
	c-0.3,0.3-1,0-1.6,0v0.3l-0.3,0.3l0,0l-0.7-0.3v-0.3h-0.7l0,0l-0.3,0.3v-0.3h-0.3v-0.7h0.3v-0.3l0.3-0.3v-0.7h-0.7v0.3h-0.7v-0.3
	h-0.3v0.7h-0.7v0.3l-0.3,0.3v0.3l0,0c0,0.3,0,1,0,1.6h-0.3c-0.7,0-0.3-0.7-0.3-0.7h-0.7v0.3H126v0.3h0.3v0.3H126v0.3h-0.3v-0.3h-1
	v0.3H124v-0.7h-2v0.7h-0.7v0.7c0.3,0,0.7,0,1,0v0.3h-2l0,0l-0.3,0.3v-0.3h-0.3v-0.7h-1v0.3h-0.3v1.6h0.3v0.3l-0.3,0.3v0.3
	c-0.3,0.3-1.3,0-2,0v-0.7h-0.7v0.7h-1.3v0.7h0v0.3h-0.3v0.3l-0.3,0.3v-0.7h-0.3v-0.3h-0.3v0.7h-0.7v0.7h2.3v-1h0.3
	c1-0.3,0.3,0.7,0.3,1h0.3v0.3h0.3v-0.3h0.7v0.7h-0.3v0.3h-0.3v0.7h-0.3v-0.3h-0.7v-0.3h-0.3v-0.3h-3v0.7h0.3v0.3h-0.3v0.3l-0.7,0.3
	v1.6h0l0.7,0.3h0.3v0.3c-0.3,0.3-1.3,0.3-2,0v-0.7h0.3V268h-0.3l-0.3-0.3h-0.3c0,0.3,0,1-0.7,0.7v4.6h-0.3v0.3l-0.3,0.3v0.3h0.3v0.7
	h-0.3v1h-0.3v0.3l0,0c1,0,0.3,1,0.7,1.3h0.7v3h0.7v-1.3h0.3v0.3h0.3v0.7h0.3v-0.3l0.3-0.3v-0.7h0.3c0.3,0.3,0,1,0.3,1.3h0.3v0.3
	h-0.3v0.3l-0.7,0.3v0.7h0v0.3h-1v0.7h1.3v-0.7h0.3c0.7,0,0.3,0.3,0.3,0.7c0.3,0,0.7,0,1,0v0.3h0.3v0.3h1v-0.7h-0.3v-0.7h0.3v0.7
	c0.3-0.3,1,0,1.6,0l0,0h0.3l0,0l0.3-0.3v0.3h0.3v0.3h0.3v-0.3h0.3v-0.7h-0.3v-0.3h0.3v-0.7h-0.7v-0.7h1v1.6h0.3v0.3h0.3v-0.3
	l0.3-0.3v0.3h0.3v0.7h0.7v-1h0.3v0.3h0.3v0.7h-0.3v0.3h0.3v-0.3l0.3-0.3v0.7h0.3v0.7H121v0.3h-0.7v1h0.3l0.3,0.3h0v-0.3h0.3v-1h1.6
	v2h0.3v0.3h0.3v1h1.6v-0.7h0.3c0.7,0,0.3,1,0.3,1.6h2.3v-0.3h0.3v-0.3c0.3-0.3,1.3,0,1.6-0.3v-0.7h-0.7v-0.7h0.3l0.7,0.3h1v0.3h0.7
	v0.7h-0.7v1h0.3v0.3h1v-1.6h1.3v0.7h0v0.7h0.3l0.7,0.3h-0.3v0.3c0,0.3-0.7,0-0.7,0.3v0.3l0,0l0.7,0.3h0.3v0.3h1.6v1.3h2v-0.7h-0.3
	v-0.3h0.3V290c0.3-0.3,1.3,0,1.6,0v-0.7h0.3c1,0,0.3,1,0.3,1.3h3.3v0.3h0.3v-0.3c0-0.3,0.3,0,0.7-0.3V290h0.3v-0.3h0.7v0.7H146v0.7
	h0.3l0.3,0.3h0.3l0.3,0.3h0.3v0.3h0.3v0.3h0.3v0.3h-0.7v0.7h0.3c0.7-0.3,0.3,0.3,0.3,0.7h1v0.3h0.3l0.3,0.3h0.7v1l0.3-0.3l0.3,0.3
	h0.3v0.3h-0.3v0.3h-0.7v-0.3l0,0v0.3h-1v0.3h0.3v0.7h-0.7v0.3h0.3v0.3h0.3l0.3,0.3h0.7v0.7h-0.3v0.3h-0.3v-0.3h-1v-0.3h-0.3v-1h-1
	v0.3h-0.7v0.3l-0.7,0.7v0.7h-0.3v0.3h-1v-0.7h-0.7v-0.7h-1.3v2.3H143v0.3h-0.7v-0.3H142v-0.3h-0.3v-1h-0.7v0.7h-0.7v1.3h-0.7v-0.7
	h-0.3v-0.7h-0.3v-0.3h-0.3v0.3h-0.7v1h-0.3v-0.3h-0.3v-0.3h-0.7v0.3h-0.3l-0.3-0.3h-0.7v0.3h-0.7v-1h-0.7v1h-0.7v-1h-0.3v0.3h-0.3
	v0.7h0.3v0.3h-0.3v0.3h-0.3v-0.3h-0.3v-1h0.3v-0.7h-2.6v0.7h-0.7v0.7h-0.3l-0.3-0.3h-1v-0.3h-0.3v1H127v0.3h-0.3
	c-0.3-0.7,0-1.3,0-2.3h-0.3c-0.7,0-0.3-0.3-0.3-0.7h-1.3v-0.7h0.3v-0.3h-0.7v-0.3H122v0.3h-0.3v-0.3h-0.3v-0.7H121v0.3h-0.7v-0.3
	h-0.3v-0.3h1v-0.7h-1.3v-0.7h-2v2.3h-0.3l-0.3-0.3h-0.3l-0.3-0.3h0.3v-1.3h-3v-0.3h0.3v-0.3h1V293h-1v-0.7l0,0v0.3h-0.7v0.3h0.3v1
	h-0.3v0.7h0.3l0.3,0.3h0.3l0.3,0.3h0.3v0.3h0.3v0.3h0.3c0.3,0.7,0,1.3,0,2h-1.3v0.3h-0.3v0.3h-0.3v0.3l-0.3,0v0.3h0.3v1h-0.7v0.3
	h-0.3v0.3h-0.3v1.6h0.3c0.7-0.3,0.3,0.3,0.3,0.7h0.7v-0.7h1.6v-0.3l0.3-0.3v-0.7h0.3v0.3h0.7v-0.7h-0.3l-0.3-0.3h0.3
	c1-0.3,0.3,0.7,0.7,1h0.7v0.3h0.3v0.3l-1,0.3v1.3h0.3v-0.3h0.3v-0.7h0.3v0.7h0.3v1h-0.3v0.3h-0.7v-0.3h-1.3v0.3l-0.3,0.3v0.3h0.3
	v0.3h0.3v-0.3l0.3-0.3v0.3h0.3v-0.3l0.3-0.3v0.3h0.3v0.3h0.3l0.3,0.3h0.3v0.3l-0.3,0.3v0.7h0.3c0.7,0,0.3,0.7,0.3,1h0.3
	c0.7-0.3,0.3,0.7,0.3,0.7h1v0.3h0.3l0.3,0.3h2.6v0.3h0.3v0.3h0.7v-1h-0.7v-0.3c-0.3,0-0.7,0-1,0v-0.7h0.7v-0.7h0.3v0.3h1.3v-0.7h2v1
	h1.3v-0.3l0.3-0.3v-0.3l0.7-0.3v-0.3h1v0.3h-0.7v0.7h0.3l0.3,0.3l0,0v0.3v1v0.3h-0.3l-0.3-0.3h-3v0.7h-0.7v1.3h0.3
	c0.7-0.3,0.3,0.3,0.3,0.7h1.3v-0.3h0.3c0-0.7,0-1.3,0-2h0.3l0.7,0.3h0.3l0,0h0.3v0.3h0.7v-0.3h1.3v0.3h-0.3v0.3h1V310h-0.3v-0.3
	c0.7-0.3,2,0,2.6,0v-0.3l0.3-0.3v0.3h0.3l0.7,0.3h-1v1h0.3v0.3h-0.3v0.3l-0.7,0.7v-1h-0.3v-0.3l0.3-0.3V310h-0.3v0.3h-0.7v0.3h-2.3
	v0.7h-0.3v1h0.3V312l0.3-0.3V311h0.3v0.3h1.3V311h0.3v0.3h0v0.7h0.3v-0.3h2.6V311h-0.7v-0.3l0.7-0.3V310h0.3l0.3,0.3h0.3V310h0.3
	v-0.3h-0.7v-0.3c0.3-0.3,1.3,0,2,0v0.7h-0.3v0.7h-0.7v0.3h-0.3v1h0.3v0.3h0.3V312h1v0.3h0.3v-1h0.3l0.3,0.3h0.3l0,0h0.3V311h0.3v0.3
	h0.3v0.7h1v-1.6h-3V310c0.7-0.3,2,0,2.6,0v-0.3l0.3-0.3V309h1.3v0.7h0.7v-0.3l0.3-0.3v0.3c0.3,0,1,0,1,0v0.3h-0.3l0,0h-1v0.3
	l-0.3,0.3v0.3h-0.3v-0.3H144v1h0.7V311h0.3v0.3h0.3v0.7h0.3v-0.3l0.3-0.3V311h-0.3v-0.7h2v-0.7h0.7v-1h-0.3v-0.3h-0.3v0.3h-0.3v-0.3
	H147v-0.7h3.6l0,0l0.3-0.3v-0.3l0.3-0.3l0.3,0.3h0.3l0.3,0.7h0.7v-0.3h0.3l0.7,0.3h0v-0.3h0.3v-0.3h-0.3v-0.7h2.6v-0.7h-3v-0.7h-0.3
	v0.3h-0.7v-0.3h-0.3l0,0.3h0.3v-0.7h0.3v0.3h0.3l0.7,0.3h0.7v-0.3l0.3-0.3v-0.7h0.3l0.3,0.3h0.3v-0.3h0.7v-0.3h-0.3v-0.3h-0.3
	l-0.3-0.3l0.3-0.3v-0.3h0.7v-1h0.7l0,0h0.3v0.3h0.3v0.3h0.3l0.7,0.3h0.3v0.3h-0.3v0.3l0,0h0.7v-1h0.3v-1h-0.3l-0.3-0.3h0.7v-0.3
	l0.3-0.3v-0.3h-0.3v-0.3h-0.3c0-0.3,0-1,0-1.6h0.3v-0.3h0.3v-0.7h-0.3v-1h0.7v-0.7h-0.3l-0.3-0.3h-0.3v-0.7h0.3V294l0.7-0.3v-1h-0.3
	V292.3z"/>
<path class="st1" d="M-42.6,306.4h-0.7v-0.7h0.7V306.4z M-44,305.1L-44,305.1l-0.3,0.7h0.3v0.7h-1v-0.3h-0.3v-0.3c-0.3,0-0.7,0-1,0
	v-0.3h0.3v-0.3h-0.3v-1h1v0.7l0.3-0.3v-0.3h1V305.1z M-45.3,302.8L-45.3,302.8L-45.3,302.8L-45.3,302.8L-45.3,302.8z M-46.6,306.7
	h-1v-0.3h-0.3v-0.3h1.3V306.7z M-48.2,307.1h-0.7v-0.7h0.7V307.1z M-50.9,308.1l-0.3,0.3v0.3h-0.3v-0.3h-0.3v-0.3
	c0.7,0.3,0-0.7,0.7-0.3L-50.9,308.1L-50.9,308.1L-50.9,308.1z M-53.1,306.7v0.7h-1v-0.7H-53.1v-1.3h0.7c0,0.3-0.3,1,0.3,0.7h0.3v0.7
	C-51.8,306.7-53.1,306.7-53.1,306.7z M-53.1,303.1h1.3v0.7l-0.3,0.3v0.3h0.3v0.7h-0.3v0.3h-0.3l-0.3-0.7h-0.3V303.1z M-55.1,299.5
	h-1.6v-0.7h1.6V299.5z M-64,308.7h-1.3v-0.3c0.3,0,0.7,0.3,0.7-0.3v-0.3c0.7,0.3,0-0.7,0.7-0.3C-64,307.4-64,308.7-64,308.7z
	 M-65.6,300.5L-65.6,300.5l-0.3,1h-0.7v-0.3h-0.3v-0.3h-0.3v-0.3h0.3v-0.3l0.3-0.3v-0.3h1v-0.7h0.7v1.3L-65.6,300.5L-65.6,300.5z
	 M-70.2,308.7h-0.7v-1h0.3v0.3h0.3V308.7z M-74.1,300.2L-74.1,300.2l-0.3,0.3h-0.7v-0.3h-0.3v-0.3h-0.3v-0.3h-0.3v-0.7h2V300.2z
	 M-76.1,308.7h-0.7v-0.7h-0.3v-0.3h1C-76.1,307.7-76.1,308.7-76.1,308.7z M-77.8,299.5v-0.7h1v0.7H-77.8z M-80.7,297.6h-0.7v-0.3
	L-80.7,297.6L-80.7,297.6z M-81.7,305.4h-1.6v-0.3l0.3-0.3h0.7L-81.7,305.4L-81.7,305.4L-81.7,305.4z M-88.2,302.5h-0.7v-0.7h0.7
	V302.5z M-89.2,288L-89.2,288h-1v-3h0.7c0,0.3-0.3,1.3,0.3,1.3v0.3h0.3v0.7L-89.2,288z M-89.9,302.5h-0.7v-1.3h0.7V302.5z
	 M-91.9,263.4h-0.7v-0.7h0.7V263.4z M-92.8,266.7h-0.7v-0.7h0.7V266.7z M-92.8,294.9L-92.8,294.9l-0.3-0.7h0.3V294.9z M-93.8,279.8
	h-0.7v-0.7h0.3L-93.8,279.8L-93.8,279.8L-93.8,279.8z M-95.1,272.6L-95.1,272.6L-95.1,272.6l-0.7,0.3v-0.7c0.7,0.3,0-0.3,0.7-0.3
	V272.6z M-95.1,291h-0.7v-1h0.7V291z M-96.1,286.1h-0.7v-0.7h0.7V286.1z M-96.8,281.5L-96.8,281.5l-0.3-0.7h0.3V281.5z M-85,270.3
	h0.7v0.3H-85V270.3z M-83.7,258.2h0.7v0.3l-0.3,0.3v0.3h-0.3V258.2z M-83.3,256.6h0.7v0.3L-83.3,256.6L-83.3,256.6z M-83,261.2v-0.7
	h0.3v0.7H-83z M-82.3,268.7v0.3h0.3v1h-0.7l0-0.7H-83v-0.7H-82.3z M-82,268.4h0.7v0.3L-82,268.4L-82,268.4z M-82,256.2h1v0.3
	l-0.3,0.3v0.3h-0.3L-82,256.2L-82,256.2L-82,256.2z M-80.7,267.7L-80.7,267.7l0.3,0.7h-0.3V267.7z M-78.1,256.6h0.7v1h-0.7V256.6z
	 M-75.8,258.2h0.7v0.7h-0.3L-75.8,258.2L-75.8,258.2L-75.8,258.2z M-72.8,269h0.3v0.3L-72.8,269L-72.8,269z M-70.5,272h0.3v0.7h-0.3
	V272z M-69.9,275.3h0.7v1.3h-0.3v-0.3h-0.3V275.3z M-68.6,277.6L-68.6,277.6l0.3,0.3h-0.3V277.6z M-67.9,262.1h0.7v0.3h0.3v0.7h0.3
	v0.3h1l0.3,0.3h0.3v0.3h-1v-0.3h-0.3v-0.3h-1l-0.3-0.7h-0.3V262.1z M-65,280.5L-65,280.5l0.3,0.3H-65V280.5z M-65,269.4
	c0.7,0,0-0.7,0.7-0.3v0.3h0.3l0.3,0.3h0.3v0.7H-64V270h-0.3L-65,269.4L-65,269.4L-65,269.4z M-66.9,280.8L-66.9,280.8l-0.3-0.3h0.3
	V280.8z M-62,278.2L-62,278.2L-62,278.2L-62,278.2L-62,278.2z M-42.3,304.5H-43v-0.7h-1.3v-0.7h0.3v-0.3h-0.3v-0.3h-0.7v0.3
	c-0.7,0-0.3-1-0.3-1.3h-0.3v-0.3h-0.3v0.7h0.3v1h-1.6v0.3h-0.3v-0.3h-0.3v-0.3h-0.3v-0.3h-0.3l-0.3-0.3h-0.7v-0.7h1.3v0.3h0.3v0.7
	h0.3v-0.3h0.3v-0.3l0.7-0.3v-0.3h-1.3v-0.3h-0.3v-0.3l0.3-0.3v-0.7h-2.6v0.3l-0.3,0.3v0.3h-0.7v0.7h0.3v0.3h-0.7v0.3h-0.7v-0.3h-0.3
	v-0.7h-0.3v-0.3h-0.7v-0.3h-0.3v-0.3h-0.3v-0.3h-0.3v-0.3h-1v-0.7h0.7v-0.7h-0.7v0.7h-0.3v0.3l-0.3,0.3v-0.3h-0.3v0.3h-0.3v0.3
	l-0.3,0.3l0,0h-0.3v-0.7h0.3v0.3l-0.3,0.3v0.3c-0.7,0.3-1.3,0-2,0v-2h-0.7v3.3h-0.3v0.3H-61v0.3h-0.3v0.7l-1.3-0.3v-0.3H-63v-0.3
	h-0.3v-1H-64v-1.3h0.7v-1h-0.3v-0.3H-64l-0.3-0.7H-65v0.3c-0.7,0.3-1.6,0-2.6,0v-0.3h-0.3v0.3h-0.3v1h0.7v1.3h-0.7v-1h-0.7v0.7h-0.3
	l-0.3-0.3h-0.3v-0.3h-0.3v1.3h-0.3v0.3h-0.3v1h-0.3c-0.7,0-0.3-0.7-0.3-1h-0.3v-0.7h1v-1.3h-0.7v1h-0.3v0.3c-0.3,0.3-1,0-1.6,0v-1
	h-0.3l-0.3-0.3h0.3v-0.7h0.3l0,0h0.3v0.3h0.3v0.3l0.3-0.3v0.7h0.3v0.3h0.3v-2.6h-0.7v0.3h-0.3v-0.7h-0.3v-0.3h-0.3v0.3l-0.3,0.3v0.3
	h0.3v1.3h-0.7v-0.7h-0.3v-0.3h-0.3v-0.3h-2.3v0.7h-0.7v-1h-0.3v0.3l-0.3,0.3v1.3h-0.7v-0.3h-0.3l-0.3-0.3l0.7-0.3v-0.3h0.3v-0.3
	h-0.3v-0.3h-0.3v0.3l-0.3,0.3v0.3H-80l-0.3-0.3H-81v0.3h-0.7v-0.3h-1v-0.7h-0.7v0.3H-84v-0.3h-0.3c-0.7,0.3-0.3-0.3-0.3-0.7H-85
	v-0.3h-1.6v-0.7h1l0,0l0.3-0.3v-1h-0.3v-0.3H-86V293h-1.6v-0.3h-0.3v-0.3h-0.3v-0.7h-0.3v-0.3h-0.3c0-1.6,0-2.3,0-3h0.3V288h0.3
	v-1.3h-0.3v-0.3h-0.3v-1h-0.3v-0.3h-0.3v-0.7h0.3v-0.3h0.3v-0.7h-0.7v-0.7h0.3v-0.7h-0.3v-1h0.3v0.3h0.3v-0.3l0.7-0.3v-0.7h-0.3
	l-0.3-0.7h-0.3v-0.7h1v-3.3h0.3v-1h0.3c0.3,0.3,0,1.3,0.3,1.6h0.3v-0.3l0.3-0.3v-0.7h0.7v-0.7h-0.3v-0.3l0.3-0.3v-0.3h-0.3V273h-0.7
	v-0.7h0.7V272h0.3v-0.3h0.7v-0.3l0.3-0.3v0.7h0.7V271h0.3v0.3h0.3v0.3h0.3v-0.3h0.3v-1h-0.3v-0.7h0.3c0.7-0.3,0.3,0.3,0.3,0.7h2.3
	V270l0.3-0.3V269h-0.3v-0.7h0.3V268c0-0.3,0.7,0,0.7-0.3v-0.7h0.3l0.3,0.3h0.7v-0.7h0.3c0.7-0.3,0.3,0.3,0.7,0.7h0.7v-0.3l0.3-0.3
	v0.3h0.3l0.3,0.3h0.7v0.7h-1v-0.3h-0.3v-0.3h-0.3v1.3h0.3v0.3h0.3v0.3h0.3v0.3h0.3v0.3h0.3v-0.3h0.3v0.3h0.3v-0.3h0.3v-1h0.3v0.3
	h0.7l0,0h0.3l0.3,0.3h0.3v1.3h-0.3v0.3h0.7v-0.3l0.3-0.3c0.7-0.3,0.3,0.3,0.7,0.7h0.3c0,0.7,0,1.3,0,2h-1v0.7h0.3
	c1-0.3,0.3,0.7,0.7,1h0.3v0.3h0.3v0.3h-0.3v0.3h0.3v0.3h0.7v0.7h-0.3v0.3h0.3l0.3,0.3h0.3v0.3c0,0.3-0.3,0-0.7,0.3v1.3h-0.3v0.3h0.3
	v0.3h-0.3v0.3h-0.3v0.7h0.7v-1h1v2h0.7v-0.3h0.3v0.3c0.7,0,0.3,1,0.3,1.3h2.6v0.3h0.3v-0.3h0.7v-0.3c0-0.3,0.7,0,0.7-0.3v-0.7H-63
	v0.7c0-0.3,1,0,1.3-0.3v-0.7H-62v-0.3h-0.3v-1h1.3v-1.6h0.3v-0.3h0.3v-0.3h-0.3v-0.3H-61v-0.3h-0.7v-0.7H-62v-0.7h-0.3v-1h0.3
	l0.3,0.3h0.3v0.3h0.3v-1h-0.3v-0.3h-0.3c-0.3-0.3,0-1.3,0-2h0.3V272h-0.3v-0.3H-62v-0.3h-0.3V271H-63v-0.3h0.3v-1.3H-63V269h-0.3
	v-0.3h-0.3c-0.3-0.3,0-0.7,0-1h-0.7v-1.6h-0.3v-1.3h0.3v-0.7c-0.7,0-0.3-1-0.3-1.3h-2v-0.3h-0.3v-0.7h-0.3v-1h0.7v-0.7h-0.3
	c-0.7,0-0.3-0.7-0.3-1h-1.3v0.7h-1.3v-0.3h-1v0h-1.3v-0.3h-0.3v-0.3c0.3-0.3,1,0,1.3,0v-0.7h-0.7v-0.7h0.3v-0.3h-0.3v-0.3h-0.3v0.3
	h-0.3v1.3h-0.3v-0.3h-0.3v-0.7h0.3v-0.3h-0.3v-0.3h-0.3c0,0.3,0,0.7,0,1h-0.3v0.3l-0.3,0.3c-0.3-0.3,0-1-0.3-1.6h-0.7v1
	c-0.7,0-1.3,0-2.3,0v-1.3h0.3v-0.7h-0.3c-0.7,0.3-0.3-0.3-0.3-0.7h-0.7v0.7h-0.7v1h-1.3v-0.7h-0.3h0h0.7v-0.3h-0.7v-0.7H-82v0.7
	h-0.3c-0.7,0.3-0.3-0.3-0.3-0.7H-85v2.3h-1.6v-0.7h-0.3v-0.3h-0.3v0.3h-0.7v-0.3h-0.3v-0.3h-0.3l0,0h-0.3v0.3l-0.3,0.3
	c0,0.7,0,1.3,0,2h-0.3v-0.3h-0.3v-0.3h-0.7v0.7h0.3v0.7h-0.3v0.3h0.3v0.3h0.3v-0.3h0.3v0.3h0.3v-1h0.3v-0.3h0.3v-0.7h0.7v1h-0.3v0.3
	h-0.7v1.6h-0.3v0.3h-0.3l-0.3-0.3h-0.3v-0.3h-1v0.7h-0.7v-1.3h-1v0.3h-0.3v1.6h0.3v0.3l-0.3,0.3v0.3h-0.3v0.3h-0.3v0.3h0.3l0.7,0.3
	h0.3v0.7h-0.7v0.3h-0.3l-0.3-1h-0.3v1h-0.3v0.3l-0.7,0.3v0.7h-1v2h0.7V268l0.3-0.3v-0.3h-0.3v-0.7h0.3v-0.7h1v0.3h-0.3v0.3h-0.3v0.7
	h0.3l0.3,0.3h0.3v-1h0.3c0.3,0.3,0.3,1,0,1.6h-0.3v0.3h-0.3v0.7h-0.3v0.3h-0.3v0.3h-2v0.7h0.3l0.3,0.3h0.3v0.3h-0.3v0.3h-0.3v0.3
	h-0.3v0.7h-1v0.3h-0.3v0.3h0.3l0.3,0.3h0.3v0.7h-0.3v-0.3h-1.3v0.3h0.3v0.3h0.3l0.3,0.3h-0.3v0.3c0,0.3-0.3,0-0.7,0.3v0.3h0.3v0.3
	h0.3l0.7,0.3h0.3v-0.3h0.3v-0.7c0.3,0,0.7,0,1,0v0.3h0.3c0.3,0.7,0.3,1.3,0,2h-0.3v0.7h0.3v0.7h-0.3c-0.7,0-0.3-0.7-0.3-0.7h-0.3
	v-0.7h0.3v-0.7h-0.7v0.7h-1v-0.7h-1.3v0.3h0.3c0.7,0,0.3,0.7,0.3,0.7h0.7v0.7h-0.3v0.3h0.3v0.3h0.3v0.3h-0.3v1.6h-0.3v0.7h0.3
	c0.3,0.3,0.3,1.3,0,2h-0.7v1.3h0.7v-0.3h0.3v0.7h0.3v0.3h-0.3v1.6h0.3v0.7h-1v0.7h0.3v1.3h-0.3v0.7h0.7v-0.3l0.3-0.3l0.3,0.3h0.3
	v0.3h-0.3v0.7h0.3v0.3h0.3v0.7h0.3v-1h0.3l0.7,0.3h0.3c0,0.3,0,1,0,1.6h-0.3v0.3h0.3v0.7h-0.7v1h3v0.7h-0.3v0.3h-0.7v0.7h0.3v0.3
	h0.3v-0.3h0.3v0.3l0,0v0.7h0.3v0.3h0.7v1h-0.3v1.3h-0.7v1.3h1v0.3h0.3v0.3h2.3v0.3h0.3v0.3h0.3l0.3,0.7h1.6v-0.3h0.7v3h0.3
	c0.7,0,0.3,0.3,0.3,0.7h0.7v-0.3l0.7-0.3v-0.3h0.3v0.3h1.3v0.3h0.3v0.7h-1v1h0.3v0.3h0.3v-0.3c0.3-0.3,1,0,1.6,0v0.3h1v-0.3h0.3
	v-0.3h-0.7v-0.7h0.3l0.7,0.3h0.3c0.7,0,0.3,0.3,0.3,0.7h0.3v0.3h0.3c0.3,0.3,0,0.7,0,1.3h1.6V309h0.3v-0.3h0.3
	c0.3,0.3,0.3,1,0.3,1.6h0.7V309h0.3v-0.3h0.3v0.3h0.7v-0.3h1.3v0.7h3.9v-0.7h0.3c0.7-0.3,0.3,0.7,0.7,0.7h2.3v1.3h0.3
	c0.7-0.3,0.3,0.3,0.3,0.7h1.3v-3.3h-0.3v-0.7h0.7v-0.3h0.3v-0.3h-0.3v-0.3h0.3v-0.3l0.3-0.3v0.3h0.3v0.3H-61v0.3h0.3v0.3h0.3
	c0.3,1,0,2,0,3.3h1V310h0.3v-1h0.3c0.7-0.3,0.3,0.7,0.3,0.7h0.3v0.3h0.3v0.3h0.7V310h0.3l0,0h0.3v-0.7h-0.7v0.3h-0.3v-0.3h-0.3
	l-0.3-0.3l0.3-0.3v-0.3h0.3v-0.7h-0.7v0.3h-1v-0.3h-0.3c-0.3-0.3-0.3-1,0-1.6h0.3c0.7-0.3,0.3,0.3,0.3,0.7h0.3v0.3h1.3v0.3h0.3
	c0.3,0,0.7,0,0.3,0.3h0.3v0.3h0.3v0.3h0.3l0.3,0.3h1v-0.3l0.3-0.3l0.7,0.3h0.7v-0.3l0.3-0.3v-0.3c0.3-0.3,1,0,1.3,0v-0.7h0.3v-0.3
	c0.7,0,0.3,1,0.3,1.3h1.3v1h0.3v0.3h0.7v-0.7h0.3v-0.3l0.3-0.3v0.3h0.3v0.3h0.3l0,0c0.3-0.3,1,0,1.6-0.3v-0.7h2v-0.7h0.7v-0.7h0.7
	v-0.7H-42C-42.6,305.4-42,304.8-42.3,304.5"/>
<rect x="-24" y="254.6" transform="matrix(-0.9998 1.919676e-002 -1.919676e-002 -0.9998 -42.0278 510.2334)" class="st1" width="1" height="0.7"/>
<path class="st1" d="M-86,255.2c-0.3,0,0,0.7-0.7,0.3v0.7h0.7V255.2z"/>
<path class="st1" d="M429.4,299.2L429.4,299.2l-0.3-0.3h-0.3v-0.3h0.7L429.4,299.2L429.4,299.2z M426.1,298.2h-0.7v-0.7h0.7V298.2z
	 M425.1,299.5L425.1,299.5l-0.3,0.3h-0.3v-0.3h-0.3v-1h1L425.1,299.5L425.1,299.5z M422.9,297.6h-1v0.3h-0.3v-0.3h-0.3v-0.3l0.7-0.3
	l0,0h0.3l0.3-0.7h0.3V297.6z M409.7,304.8h-0.7v-0.7c0.7,0.3,0-0.7,0.7-0.3V304.8z M404.5,299.5L404.5,299.5L404.5,299.5
	L404.5,299.5L404.5,299.5z M403.8,306.4h0.7v1.3h-0.3v-0.3h-0.3L403.8,306.4L403.8,306.4z M403.5,296.3h-0.3v0.3h-0.3l-0.7-0.3h-0.3
	v2h1v0.3h0.3v0.7h-0.3v0.3h-0.3v-0.7h-0.3l-0.3-0.3l-0.3,0.3l0,0h-0.3v-0.3h-0.3v-0.3h-0.3l-0.3-0.3h-0.3v-1l0.3-0.3l-0.3-0.3h-0.3
	v-0.7h0.3l0,0l0,0l0.3,0.3h0.3v-0.7h0.7v0.3h0.3v0.3h0.3v0.3H403.5z M403.5,307.1h-0.7v-0.3l0,0v-0.3c0.7,0.3,0-0.7,0.3-0.3v0.3h0.3
	L403.5,307.1L403.5,307.1z M401.9,306.4h-0.7v-1.3h0.7V306.4z M398.9,306.4h-0.7v-0.7h0.7V306.4z M393.3,296.3H393v0.3h-0.3v-0.3
	h-0.3v-0.3c0.3,0.3,0-0.7,0.7-0.3v0.3h0.3L393.3,296.3L393.3,296.3z M391.7,296.9h-0.3v0.3h-0.7l-0.7-0.3h-0.3v-0.3
	c1,0.3,0.3-0.7,1.3-0.3L391.7,296.9L391.7,296.9L391.7,296.9z M384.8,303.1h-0.7v-1h0.3v0.3h0.3L384.8,303.1z M384.1,296.6
	L384.1,296.6L384.1,296.6L384.1,296.6L384.1,296.6z M381.5,298.5h-1v-0.7h1V298.5z M380.2,292.3h-0.7V292L380.2,292.3L380.2,292.3z
	 M376.9,265.1h-0.3v-0.7l0,0v-0.3l0,0l0.3,0.3h0.3v0.7H376.9z M376.6,266.1h-0.7v-0.3L376.6,266.1L376.6,266.1z M375.9,267.4
	l-0.3,0.3v0.3h-0.3v-1h0.3L375.9,267.4L375.9,267.4L375.9,267.4z M375.6,268.4L375.6,268.4L375.6,268.4L375.6,268.4L375.6,268.4z
	 M375.3,295.6L375.3,295.6L375.3,295.6l-0.7,0.3v-0.7L375.3,295.6L375.3,295.6z M373.3,293H373v-1h0.3V293z M372.7,268.4l-0.3,0.3
	v0.3H372v-0.7H372.7L372.7,268.4z M372,290h-0.7v-0.3H371V289c0.7,0,0-0.7,0.7-0.3v0.3h0.3V290z M370.4,283.5L370.4,283.5
	c-0.3-0.7,0-1.3-0.3-2h-0.3v-1h0.7L370.4,283.5L370.4,283.5z M378.6,273h0.7v0.3h-0.7V273z M401.9,270.7v1.3h-0.7v-1.3H401.9z
	 M380.5,271.6h1v0.3h0.3v-0.3h0.7v-0.3l0.7-0.3l-0.3-0.3h-0.3v-1h0.7v0.7h0.7v0.7h1v-0.7l0.7-0.3l-0.7-0.3h-0.3v-0.3h-0.3V269h-0.3
	v-0.7h0.7v0.7l0.3-0.3v0.7h0.3V269h-0.3v-0.7h1v0.3h0.3v-1h0.7v0.7h0.7v-0.7h0.7l0.3,0.3l0.3-0.3v-0.3h0.3v-0.3h-0.3v-0.3h-1v0.3
	h-0.3l-0.3-0.3h-0.3v-1h0.3v-0.3h0.3v-0.3h1.6v0.7c-0.3,0-0.7-0.3-0.7,0.3v0.3h0.3v0.3h1.6v-0.7h0.7v-0.3c0.3,0,1,0,1.3,0v-0.3
	l0.3-0.3v-0.3l0.3-0.3h1v0.7h-0.3v0.3h0.3v0.3h2v-0.7h0.7v0.7h1v0.7h2.3v-0.7h2v0.7h0.3v-0.3h2.3l0,0h-0.3v0.3h-3.3v0.7h-0.7v2.3
	h-1.3V269h-0.3v0.7h-0.3v0.3h-0.3v-0.3h-0.3v0.3h-0.3l-0.3-0.3h-0.3v1.6h1v0.3h0.3v0.3h0.3v0.7h1.3v0.7h-1v0.3h0.7v0.7h0.3v-0.3h0.7
	l0.3,0.7h0.3v0.3h-0.3v0.3h-0.7v-0.3h-0.3l-0.3-0.3h-0.3v-0.3h-0.3v-0.3h-0.3v-0.3h-0.3v-0.3h-0.3V273h-0.3v-0.3h-0.3l-0.3-0.3h-0.3
	V272H396v-0.3h-0.3v-0.3h-3.3v0.7h0.3v-0.3h1v0.7h-0.3v0.3h-0.7v-0.3h-0.3V272l-0.3,0.3v0.3h-0.3v0.3h-2v-0.3h-0.3v-0.3h-3.3V271
	h-1.3v2.3h-1.6l-0.7-0.3h-0.3v0.3h-1l-0.3-0.3h-0.3v0.3h-0.7v-0.7h-0.3v0.3h-0.3L380.5,271.6L380.5,271.6L380.5,271.6z M392.3,256.6
	L392.3,256.6L392.3,256.6L392.3,256.6L392.3,256.6z M394.3,256.9h0.7v1.3h-0.7V256.9z M395.6,257.9h2.3v-0.7h-0.7v-1h2v0.7l-0.3,0.3
	l0.3,0.3h0.3c0,0.3,0,0.7,0.3,0.3h0.3v1h-0.3l0,0h-1l-0.3-0.3h-0.3v0.7h-0.3v0.3h-0.7v-0.7h-0.7v-0.3h-0.3c0-0.3,0-0.7-0.7-0.3h-0.3
	v-0.3H395.6z M404.5,263.8h0.3v0.7h-0.3V263.8z M406.1,267.7L406.1,267.7l0.3-0.7h-0.3v-0.3h0.7l0.3,1.3h0.3v0.3h-0.3v0.3l-0.7,0.3
	v0.3h-1V269h0.3v-0.3L406.1,267.7L406.1,267.7z M406.1,260.8h1v0.7h-1V260.8z M407.1,275.3h-1.3l-0.3-0.3h-0.3v-0.3h0.3v-0.7h0.3
	v0.3h0.3v0.3h0.7v0.7H407.1z M405.8,276.9h-2.3v-0.7h2.3V276.9z M399.6,275.9h-0.7v-0.7h0.7V275.9z M397.3,278.5h-0.7v-0.7h0.7
	V278.5z M394.3,273.6L394.3,273.6L394,273h0.3V273.6z M394.3,279.8H394v0.3h-0.3v-0.3h-0.3v-0.3h1V279.8z M387.8,280.5l-0.7,0.3v0.3
	h-0.3l-0.3-0.3h-0.3v-0.3H387.8L387.8,280.5z M385.5,280.5h-0.3v-0.3L385.5,280.5L385.5,280.5z M407.1,272h1v0.7h-0.7v-0.3h-0.3V272
	z M408.4,270.7h0.7v0.7h-0.7V270.7z M409.1,271.6h0.7v0.7h-0.3L409.1,271.6L409.1,271.6L409.1,271.6z M409.1,268.7h0.7v0.3
	L409.1,268.7L409.1,268.7z M410.1,271c0.7,0.3,0.7-0.3,1-0.3v0.7h-0.3v0.3h-0.7V271z M436.3,300.8v-1H436v-0.3h-0.3v0.3l-0.3,0.3
	v0.3h0.3v0.7h-0.3v0.3H435v-0.7h-0.3v-0.3h-2.3v0.3H432v-0.7h-0.3v-0.3h-0.7v-0.3h-0.3c0-0.3,0-1,0-1.6h1v-0.3h0.3v-0.3h1.3v0.3l0,0
	v0.3H433v0.7h1.3v0.7h1.3v-0.7H435v-0.3h-0.3v-0.3h0.3v-1.3h-3v-0.3h-0.7v-0.7h-0.3v-0.3l0,0c0,0.7,0,1.3-0.3,2h-0.7v-0.3h-0.7v0.3
	h-0.3v-0.7h-0.3v-0.3h-0.3v0.3h-0.7v-0.3h-0.3v0.3h-0.3v1h-1.3v-0.3h-0.3v-0.7h-0.3v-0.3h-0.7v-0.3h-1.6v0.3h-0.3v0.3h-0.3v1.3h-0.3
	v0.7h-0.3c-0.7,0.3-0.3-0.3-0.3-0.7h-0.7v-2.3h-0.3v0.3h-0.3v0.7h-0.3l-0.3-0.3h-0.7v0.3h-0.3v0.7h0.3v1h-0.7v0.7h0.3l0.7,0.3h-0.3
	v0.3l-0.7,0.3v0.3h0.3v0.3h0.3c0,0.3,0,1,0,1.3h-0.3v0.3h-0.3c-0.7,0.3-0.3-0.3-0.3-0.7h-0.7v-3h-0.3v-0.3l1-0.3v-1.3h-0.7v-1h-0.3
	v0.3H416v-0.3h-0.3v-0.7h-0.3v0.3c-0.3,0.3-1,0.3-1.6,0.3v-0.7H413v0.7h-2.3v1h-0.3v0.3h-0.3v-0.3h-1.3v1h0.3v0.3h-0.7v-0.7h-0.7
	v0.7h-0.7v-2.3h-1v-0.3h-0.3l-0.3-0.3h-3v-0.3l0,0l-0.3-0.3h-1.6v0.7h-2.6v-0.3h-0.3v-0.3H394v-0.7h-0.7v0.7h-1v0.3H392v0.3
	l-0.3,0.3c-0.7,0.3-0.3-0.3-0.3-0.7h-1.6v1.6h-0.3l-0.3-0.3h-0.3v-0.7h-0.3l-0.3-0.3h-1.6v-0.7h1.3v-1h-0.3V293h-0.3v0.3h-1V293
	h-0.3v-0.3h-0.3l-0.3-0.3h-0.3l-0.3-0.3h-0.3l-0.3-0.3h-0.3c-0.3-0.7-1.6,0-2.3-0.3V291l0.3-0.3V290h-0.3v-0.3h-0.3v-0.3h-0.3V289
	h-0.3v-0.3h-0.3v-1h0.3v-1.3h-0.3v-0.7h-0.3v-0.3h-0.3v-0.7h0.7v-1.3h1v-0.3h0.7v-1.3h0.3l0.7,0.3h0.3v-0.3h1v-0.3
	c0.3-0.3,0.7,0,1,0v-0.3l-1.3-2c0.7,0,0.3,1,0.3,1.6h0.3c0.7-0.3,0.3,0.7,0.7,0.7h0.3v-1h0.7v0.7h-0.3v0.7h0.3
	c0.7,0,0.3,0.7,0.3,0.7h1.3v0l0.3-0.3v-0.3h0.3v-0.3h-0.3v-0.3h-0.3v-0.7h0.3v-0.7h0.7v-0.3l1-0.3v-0.3h0.3v-0.3l0.3-0.3v0.7h0.7
	v1.6H390v1.3h0.7v-0.7h0.3v-0.3l0.3-0.3v-0.7h0.3v0.3h3.6v-0.3l0.3-0.3v-0.3h0.3v-0.3h0.3v-0.3l1-0.3v-1.3h0.3c1,0,0.3,0.7,0.3,1
	h0.3v-0.3h0.3v-0.7c0.7,0,1.6,0,2.3,0v2.3h2.3v-0.7h1.6v0.7h0.7v-0.7h0.3v0.3h0.3l0.3,0.7h0.3c0-0.7,0-1.3,0-2h0.3
	c1,0,0.3,1,0.3,1.3h0.7v-2h-0.7v0.3h-0.3v-0.3h-0.3v-0.3h0.7v-1h0.3l0.3,0.3h0.7l0,0l0.3-0.3v0.3h1l0,0l0.3-0.3v-0.3h0.3v-0.7h0.3
	v0.3h0.7v-1h0.3v0.3h0.3l0.3,0.3h-0.3v0.7h1v-2.6H413V272l0,0v-0.3h-0.3v-1h1v-0.3h-1V270H412v0.3h-0.3v-0.7h0.7v-0.3l0.3-0.3v0.3
	h1.3v-0.7h-0.7V268h0.3v-0.3h-0.3v-0.3h-0.7v0.3c-0.3,0.3-1,0.3-1.3,0v-0.7l0,0v-0.3H411v-0.3h0.3l0.3,0.3h0.7v-0.3h0.3l0.7,0.3h0.3
	v-0.3h-0.3v-0.3h-0.7v-0.3h-0.3v-0.7h-0.7v-2.6h-0.3c-0.7,0.3-0.3-0.3-0.3-0.7h-0.3v-0.3h-0.3v-0.3h-0.3v-0.3h-0.3l-0.3-0.3h-0.7
	v0.7h0.7v1.6h-0.3l-0.3-0.3h1v0.3l-0.3,0.3v-0.3h-0.3c0-0.7,0-1.3,0-1.6h-0.7v-2.3h-0.3l-0.3-0.3h-0.3v-0.3h-1v0.3h-0.3v0.7h0.3v0.3
	h0.7v1h-0.3v0.3l-0.3,0.3v-0.3h-1.3v1h-0.3v-0.3h-0.3v-0.7h-0.3c-0.7,0.3-0.3-0.7-0.3-0.7h-0.7v-0.7h0.3v-1.6h-1.3v-0.7h-2.3v0.3
	l-0.3,0.3v-0.7h-0.3l-0.3-0.3h-0.3v0.7h-1.3v-0.3h-0.3v-0.3h-0.3l-0.3-0.7H396v0.3h-0.3v-0.3h-0.3v0.7H395v0.3c-0.3,0.3-1.3,0-2,0
	v-0.3h0.3v0.7h-0.7v0.3l-0.3,0.3v-2H392v0.3h-0.3v-0.3h-0.3v-0.7h-0.7c0,0.3,0,1,0,1h-0.3v-0.7H390v-0.3h-0.3v0.3l-0.3,0.3v0.7h-0.3
	v-0.3h-0.7v0.7h-3v1.3h-0.7v-0.3h-0.3v0.3h-0.3l-0.3,0.7h-0.3l-0.3-0.3h-0.3v-0.7h-0.3v0.3c-0.3,0.3-1,0-1.3,0v1h-1.3v0.7h-1v0.3
	l-0.3,0.3v0.3h-0.3v1h-0.3v0.3l-0.3,0.3v0.7h1v-0.7l0.3-0.3v-0.3h0.3v-0.3h0.3v-0.3h0.3v-1.3h1.3v0.7h-1v0.7h0.7v0.7h-0.7v0.7h0.3
	v0.3h0.3v0.3h-0.3v0.3h-0.3v-0.3h-0.7v0.3h-0.3l-0.3-0.3h-0.3v-0.3h-0.3v0.3h-0.3v0.3h-0.3v-0.3h-1v0.3h-0.3v0.3l-0.3,0.3v0.3h-0.3
	v0.3l-1,0.3v2.6h-0.3v0.3l-0.3,0.3v-0.3h-0.7v0.3L373,269l-0.3-0.3h-1.3v0.3l-0.3,0.3v1h0.3v0.7H371v0.3h0.3c0,0.3,0,1,0,1.6H371
	v0.3h-0.3v0.3h0.3v0.3l-0.3,0.3v-1.6c-0.3,0.3-1,0-1.3,0v0.7h0.3v0.3h-1v0.7h0.3c0.3,0,0.7,0,0.3,0.3h0.3v0.3h-0.3v0.7h0.3
	c0.7,0,0.3,0.7,0.3,1h0.3v0.3h0.3l0.3,0.3l-0.3,0.3v0.3h-0.3v0.3c-0.3,0.3-1,0-1.3,0v2.3h-0.3v1.3h0.3v-0.3h0.7v0.7h-0.3l0,0h-0.7
	v0.3h-0.3v2.3h0.3l0.3,1h0.3v-0.7h0.3v-2h0.3l0.3,0.3h0.3l0.3,0.3h0.3l0.3,0.3h-0.3v0.3l-0.7,0.3l0,0h-0.3v1.6H370v0.7h1v0.7h-1.3
	v2.6h2.6v0.3h0.7v0.7h-0.3v0.7h0.3v0.3h0.3l0.3,0.3c0.3,0,1,0,1,0v2.3h-0.3c-0.7,0.3-0.3-0.3-0.3-0.7h-1V294h-0.3v-0.3h0.3V293h-0.7
	v0.3H372v0.7h0.3v0.3h0.3l0.3,0.3h0.3v0.3h0.3v0.3h0.3v0.3h0.3v0.3h0.3c0.7-0.3,0.3,0.3,0.3,0.7h0.3c0.7-0.3,0.3,0.3,0.7,0.7h1.6
	v0.3h0.3v0.3h0.3c0.3,0.3,0,1.3,0,1.6h1.6v0.3h0.3v0.3h0.3v0.3h0.3v0.3h-0.3v0.7h1.3v-0.7h0.7v-0.7h-0.3c-0.7,0-0.3-0.7-0.3-0.7
	h-1.3v-1.3h-0.3v0.7h-0.3v0.3l-0.3,0.3v-0.7h-0.3v-0.3h-0.3v-1h1v1.3h0.3v0.3h1v-0.3l0.3-0.3l0.3,0.3h0.3v0.3h-0.3v0.3l-0.3,0.3v0.3
	h1v0.3h0.3c0,0.7,1.6,0,2.3,0.3v0.7h-0.7v0.3h-0.3v0.3h-0.3v0.3l-0.3,0.3v0.3h-0.7v0.3h0.3v0.3h0.3c0.7-0.3,0.3,0.3,0.3,0.7h0.3
	v-0.7h0.3v-0.3h0.3l0.3,0.7h0.3v0.3h0.3v-0.3l0.3-0.3c1,0,0.3,0.7,0.7,1h0.3v-0.3l0.3-0.3v-0.7h-0.3v-0.3h0.3v-0.3
	c0.3-0.3,0.7,0,1.3,0v0.3h0.7v-0.3h0.3v-0.3h-0.3v-0.7h1.3v0.7h1v1h0.3v0.3l-0.3,0.3v0.3h-0.3l-0.3-0.3h-0.3v-0.3h-0.3v0.7h-0.7v0.7
	h2.3v-1.6h0.3c0.7-0.3,0.3,0.3,0.7,0.7h0.7v-0.7h0.3v0.3h0.3v0.3h0.3v0.7H393v1.3h0.7v-0.3l0.3-0.3v0.3h0.3v0.7h0.3v-0.3h0.3
	c0.7-0.3,0.3,0.3,0.7,0.7h1.3v-0.3l0.3-0.3v-0.3h0.3v-0.3h1v-0.3l0.3-0.3v-0.3h-0.3v-0.3h-0.3v0.3h-2.6v-0.7h0.3v-0.7h-0.7v-0.7h0.3
	c0.3,0,0.3,0.3,0.3,0.3h0.3v-0.3l0.3-0.3v0.3h0.3v0.3h1v0.7h1.6v0.7h-0.3v0.7h0.3l0.3,0.3h0.3v0.3h0.3v0.3h0.3v0.3h0.3l0.3,0.3h1
	v-0.3l0.3-0.3v-0.3h1v0.7h1.6v-0.3l0.3-0.3v-0.3h1v-1.6h-0.3v-0.7h-0.7v-0.3h-0.3v-0.3l0.3-0.3v-0.7h0.3c0.3,0,0.7,0,0.7,0.3h0.3
	c0.7-0.3,0.3,0.3,0.3,0.7h0.3l0.3,0.3h1.6v-0.7h0.3c0.7-0.3,0.3,0.3,0.3,0.7h0.3v0.3h0.3v0.3h2.3v-0.3l0.3-0.3v-0.3h-0.3v-1H413v0.7
	h-0.3v0.3H412v-0.7h0.3v-0.7H412v-0.3h0.7v-0.3h0.3l0.3,0.3h0.3v0.3h0.3v0.3h0.3v1h0.3v-2.3h0.3v0.3h0.3c0.3,0.3,0.3,1.3,0,2H415
	v0.3h0.3l0.3,0.3h0.7v-0.3l0.3-0.3l0.3,0.7h0.3v0.3h0.3v-0.3l0.3-0.3c1-0.3,0.3,0.7,0.3,1h1.6v-0.3h0.3v-0.3h-0.3v-0.3h-0.3v0.3
	h-0.7v-0.3h-0.3v-0.3h0.3v-0.3l0.3-0.3v0.3h1.3v-0.7h1.3v-0.7h0.7v-0.7h0.3l0.7,0.3h0.3v-0.7h0.3v-0.3h0.3l0,0l0.3-0.3v-0.7h1v3.9
	h0.3v-0.3h-0.7l0.3-0.7h0.3v0.3h0.3v-0.3h0.7v0.7h-0.3v0.3h0.3v0.3h1v0.3h0.3l0.3,0.7h0.3v0.3h0.3v-0.3h0.3v0.3h0.3v0.3h0.3v0.3h0.3
	v0.7h0.3v-0.7h0.3v-0.3c0.3-0.3,1.3-0.3,2,0v1h0.3v-0.3l0.3-0.3v-1h-0.3v-0.7h0.7v-0.3h0.3v-0.3h-2v-1.3h0.3c0.7,0,0.3,1,0.3,1.3
	h1.3v0.7h1v-0.3h0.3v-0.3h0c-0.3-0.3,0-1,0-1.6h0.3V300.8z"/>
<rect x="-76.1" y="256.6" class="st1" width="0.3" height="0.3"/>
<polygon class="st1" points="125.6,257.9 125,257.9 125,257.5 124.7,257.5 124.7,258.2 125.6,258.2 "/>
<rect x="193.9" y="258.2" transform="matrix(-0.9985 5.451013e-002 -5.451013e-002 -0.9985 401.8722 506.0887)" class="st1" width="0.3" height="0.7"/>
<rect x="226.4" y="259.5" transform="matrix(-0.9996 2.841070e-002 -2.841070e-002 -0.9996 460.6491 513.1208)" class="st1" width="0.7" height="0.7"/>
<rect x="56.7" y="261.8" class="st1" width="0.7" height="1.3"/>
<polygon class="st1" points="88.9,264.8 90.2,264.8 90.2,264.1 89.6,264.1 89.6,263.8 89.2,263.8 89.2,263.4 88.9,263.4 88.6,264.4 
	88.6,264.4 88.6,264.4 88.6,264.4 "/>
<polygon class="st1" points="86.3,265.4 86.6,265.4 86.6,265.1 86.9,264.8 86.9,264.4 86.6,264.4 86.6,264.4 85.9,264.4 85.9,264.8 
	86.3,264.8 "/>
<polygon class="st1" points="142,264.1 141.7,264.1 141.7,264.8 141.4,264.8 141.4,265.4 142.4,265.4 142.4,264.4 142.4,264.4 "/>
<polygon class="st1" points="326.4,267.1 326.4,266.7 326.1,266.7 326.1,267.1 "/>
<polygon class="st1" points="-78.1,270 -77.4,270 -77.4,268.7 -78.1,268.7 "/>
<rect x="391" y="271.3" class="st1" width="1.3" height="0.7"/>
<polygon class="st1" points="415.3,271.6 415.3,271.3 415,271.3 415,271.6 "/>
<polygon class="st1" points="189.3,277.2 189.6,276.9 189.6,276.6 189,276.6 189,277.2 "/>
<polygon class="st1" points="369.1,278.2 369.4,278.2 369.4,278.2 369.7,277.9 369.7,277.6 369.4,277.6 369.4,277.2 368.7,277.2 
	368.7,277.9 368.7,277.9 "/>
<polygon class="st1" points="215.9,279.8 215.9,279.8 215.9,280.5 216.8,280.5 216.8,279.8 216.5,279.8 216.5,279.5 216.8,279.5 
	216.8,279.2 217.2,278.9 217.2,279.8 217.8,279.8 217.8,278.2 216.2,278.2 "/>
<polygon class="st1" points="409.7,278.9 410.1,278.9 410.1,278.5 410.4,278.5 410.4,277.9 409.7,277.9 "/>
<path class="st1" d="M-4.9,281.2L-4.9,281.2l-0.3-0.3c-0.3,0,0,0.7-0.7,0.3v0.7h1V281.2z"/>
<polygon class="st1" points="189.3,280.2 189,280.2 189,280.5 189.3,280.5 "/>
<rect x="397.3" y="280.2" class="st1" width="3" height="0.7"/>
<path class="st1" d="M55.4,282.1h-0.7v0.7h0.3c0.7-0.3,0.3,0.3,0.3,0.7h0.3v0.3h0.3v-1h-0.3v-0.3h-0.3V282.1z"/>
<polygon class="st1" points="231.6,282.5 231.9,282.5 231.9,282.5 232.3,282.1 232.3,281.8 231.9,281.8 231.9,281.5 231.3,281.5 
	231.3,282.1 231.6,282.1 "/>
<polygon class="st1" points="115.1,283.5 115.5,283.5 115.5,282.5 114.8,282.5 114.8,283.1 115.1,283.1 "/>
<polygon class="st1" points="147.6,283.5 147.9,283.5 147.9,283.5 148.3,283.1 148.3,282.5 147.6,282.5 "/>
<path class="st1" d="M117.8,284.1c-0.7-0.3-0.3,0.7-1,0.3v0.3h0.3l0.3,0.7h1.6v-0.7h0.3v-0.3h-0.3v-0.3h-0.7v0.7h-0.7V284.1z"/>
<path class="st1" d="M152.2,285.4h0.7v-0.7h-0.3v-0.3c-0.7,0,0,0.7-0.7,0.3v0.3h0.3V285.4z"/>
<polygon class="st1" points="302.1,286.7 302.5,286.7 302.5,286.4 302.1,286.4 302.1,286.1 301.1,286.1 300.8,286.4 300.8,286.7 
	300.5,286.7 300.5,287.1 300.2,287.1 300.2,287.7 300.2,287.7 300.5,288 301.8,288.4 301.8,288 302.1,287.7 302.1,288 302.5,288 
	302.5,288.4 302.1,288.7 302.1,288.7 301.5,289 301.5,289.4 302.8,289.4 302.8,289.7 303.1,289.7 303.1,289.4 303.4,289.4 
	303.4,287.4 302.1,287.4 "/>
<path class="st1" d="M130.9,288h-0.7v2h0.7v-0.7h0.7v-0.7h-0.3C130.6,288.7,131.2,288.4,130.9,288"/>
<rect x="286.4" y="287.7" class="st1" width="0.3" height="0.7"/>
<polygon class="st1" points="46.3,290.3 46.6,290.7 47.2,290.7 47.2,290 46.6,290 "/>
<polygon class="st1" points="317.5,290 317.5,289.4 316.9,289.4 316.9,290.3 317.2,290.3 317.2,290 "/>
<rect x="303.8" y="290" class="st1" width="1.3" height="0.7"/>
<polygon class="st1" points="142,292 139.7,292 139.7,292.6 141.7,292.6 "/>
<path class="st1" d="M144,292.3L144,292.3c-1-0.7-0.3,0.7-1.3,0v0.3h-0.3v0.7h0.7V293l0.3-0.3V292h0.7V292.3z"/>
<path class="st1" d="M-81,295.6h0.7v-1.3h-1.3v-0.7h-1.6l-0.3,0.3v0.3h0.3v0.3h0.3v-0.3l0.3-0.3l0.3,0.3h0.3v0.3h-0.3v0.7h0.7v-0.7
	h0.3C-81,294.6-81.4,295.3-81,295.6"/>
<rect x="-37.7" y="293.3" transform="matrix(-0.9989 4.763005e-002 -4.763005e-002 -0.9989 -61.1152 588.3947)" class="st1" width="0.3" height="0.3"/>
<polygon class="st1" points="388.1,292.3 388.1,293 390,293 390,292.6 389.7,292.6 389.7,292.3 "/>
<polygon class="st1" points="416.6,294.9 416.3,294.9 416.3,295.9 416.6,295.9 "/>
<polygon class="st1" points="-94.8,296.9 -94.5,296.9 -94.5,297.2 -93.8,297.2 -93.8,296.6 -94.8,296.6 "/>
<rect x="-70.9" y="296.9" class="st1" width="0.7" height="1"/>
<polygon class="st1" points="-69.2,297.9 -68.6,297.9 -68.6,296.9 -69.2,296.9 "/>
<path class="st1" d="M-61.3,297.6v-0.3h-0.3l-0.3-0.3c-0.3,0,0,0.7-0.7,0.3v1h0.3v0.3h0.3v-1H-61.3z"/>
<rect x="362.5" y="295.9" class="st1" width="0.7" height="0.3"/>
<rect x="-46.6" y="297.6" class="st1" width="0.7" height="1"/>
<polygon class="st1" points="113.2,297.2 112.5,297.2 112.5,298.2 113.2,298.2 "/>
<rect x="-59.4" y="298.2" class="st1" width="0.7" height="0.7"/>
<rect x="127.3" y="298.5" class="st1" width="0.7" height="0.7"/>
<polygon class="st1" points="6.2,300.8 6.9,300.8 6.9,300.2 6.2,300.2 "/>
<rect x="-62.5" y="301.2" transform="matrix(-4.819785e-002 0.9988 -0.9988 -4.819785e-002 235.6366 378.1452)" class="st1" width="0.3" height="0.3"/>
<path class="st1" d="M361.5,300.8v0.7h-0.3v-0.3h-1.3v1.3h0.7v-0.7h0.3v0.3h0.3v0.3h0.3v-0.3l0.3-0.3v-0.3h0.3v-0.3h0.3v-0.3h0.3
	v-0.7h-1C362.2,300.5,361.8,300.8,361.5,300.8"/>
<path class="st1" d="M116.1,302.8c-0.3-0.3,0,0.7-0.7,0.3v0.7h0.7V302.8z"/>
<polygon class="st1" points="423.5,303.1 423.5,303.5 423.8,303.5 423.8,303.8 424.5,303.8 424.5,303.5 424.8,303.5 424.8,303.8 
	425.5,303.8 425.5,302.8 423.8,302.8 "/>
<rect x="24.3" y="304.5" class="st1" width="0.7" height="1"/>
<path class="st1" d="M155.2,304.8c-0.7-0.3,0,0.7-0.7,0.3v0.3h1v-0.3h-0.3L155.2,304.8z"/>
<rect x="157.1" y="304.8" class="st1" width="1.3" height="0.7"/>
<path class="st1" d="M424.8,304.8L424.8,304.8L424.8,304.8L424.8,304.8v-0.7h-0.3v0.7h-0.3v0.3l-0.3,0.3v-1h-0.7v2.3h0.3
	c0.7-0.3,0.3,0.3,0.3,0.7h1v-0.7h1.3v-0.7h-1.3V304.8z"/>
<polygon class="st1" points="426.1,304.1 425.5,304.1 425.5,304.8 426.8,304.8 426.5,304.5 426.1,304.5 "/>
<polygon class="st1" points="-28.9,307.4 -28.2,307.4 -28.2,306.1 -28.9,306.1 "/>
<polygon class="st1" points="404.8,305.4 405.1,305.4 405.1,305.1 404.8,305.1 "/>
<polygon class="st1" points="-27.2,306.4 -27.2,306.4 -27.2,307.4 -26.9,307.4 -26.9,306.7 -26.9,306.7 "/>
<polygon class="st1" points="95.5,306.7 95.5,306.7 95.1,306.4 94.1,306.4 94.1,306.7 94.5,306.7 94.5,307.1 94.8,307.1 94.8,307.4 
	95.1,307.4 95.1,308.1 95.5,308.1 95.5,307.7 95.8,307.4 95.8,307.4 95.8,307.4 "/>
<polygon class="st1" points="421.5,306.4 421.5,306.4 420.9,306.1 420.6,306.1 420.6,306.1 420.2,306.4 420.2,306.7 420.6,306.7 
	420.6,307.1 422.2,307.1 422.5,305.8 421.5,305.8 "/>
<path class="st1" d="M408.1,306.7L408.1,306.7l-0.3-0.3h-0.7v-0.3c-0.3,0-0.3,0.7-1,0.3v1.3h0.7v-0.3h1v0.3h0.3v-0.3h0.3v0.7h0.3
	v0.3h0.3v-1h0.7v1h-0.3v0.3h1v-0.7h1v-0.3h0.3v-0.7L408.1,306.7L408.1,306.7z"/>
<path class="st1" d="M427.4,306.1c-0.7-0.3,0,0.7-0.7,0.3v0.3h0.3v0.3h0.7v-0.7h-0.3V306.1z"/>
<polygon class="st1" points="-83,308.4 -82.7,308.4 -82.7,308.1 -83,308.1 "/>
<path class="st1" d="M29.2,308.4c-0.3,0,0,0.7-0.7,0.3v0.7h0.3v0.3h0.7L29.2,308.4v0.3V308.4z"/>
<polygon class="st1" points="29.8,309 30.2,309 30.2,309.4 30.5,309.4 30.5,308.4 29.8,308.4 "/>
<path class="st1" d="M31.8,309v-0.7h-0.7v1.3h-0.7v0.7l0,0c0.7-0.3,0.3,0.3,0.7,0.7h0.7v-0.7h0.7V309H31.8z"/>
<path class="st1" d="M93.8,309L93.8,309l0.3,0.3L93.8,309h0.7v-0.3C94.1,308.4,94.5,309.4,93.8,309"/>
<polygon class="st1" points="149.3,309.4 149.3,309.7 150.6,309.7 150.6,309 149.9,309 "/>
<rect x="-72.2" y="310.4" transform="matrix(-1 9.909103e-003 -9.909103e-003 -1 -139.2873 622.0677)" class="st1" width="2" height="0.7"/>
<rect x="-66.9" y="310.4" class="st1" width="0.7" height="0.7"/>
<polygon class="st1" points="-65.9,310.7 -65,310.7 -65,310.4 -65.9,310.4 "/>
<polygon class="st1" points="247,310 248,310 248,309.4 247,309.4 "/>
<polygon class="st1" points="129.9,311 129.9,311 129.9,311.3 129.2,311.3 129.2,311.7 129.6,311.7 129.6,311.7 130.2,311.3 
	130.2,310.4 129.9,310.4 "/>
<polygon class="st1" points="130.9,311 130.9,311 130.9,310.4 130.9,310.4 "/>
<rect x="130.2" y="312" class="st1" width="0.3" height="0.3"/>
</svg>
